<?xml version="1.0" encoding="UTF-8"?>
<!DOCTYPE svg PUBLIC "-//W3C//DTD SVG 1.1//EN" "http://www.w3.org/Graphics/SVG/1.1/DTD/svg11.dtd">
<!-- Creator: CorelDRAW X7 -->
<svg xmlns="http://www.w3.org/2000/svg" xml:space="preserve" width="10.1598mm" height="10.1598mm" version="1.1" style="shape-rendering:geometricPrecision; text-rendering:geometricPrecision; image-rendering:optimizeQuality; fill-rule:evenodd; clip-rule:evenodd"
viewBox="0 0 1016 1016"
 xmlns:xlink="http://www.w3.org/1999/xlink">
 <defs>
  <style type="text/css">
   <![CDATA[
    .fil0 {fill:#256D9B}
    .fil1 {fill:#EBA12C}
   ]]>
  </style>
 </defs>
 <g id="Capa_x0020_1">
  <metadata id="CorelCorpID_0Corel-Layer"/>
  <g id="_508082141264">
   <path class="fil0" d="M735 397c5,0 8,1 12,5 3,3 4,6 4,11l0 47c0,8 -5,5 -9,9l-23 13 0 -85 16 0zm-438 89l-30 -17c-2,-2 -3,-3 -3,-4l0 -52c0,-5 1,-8 4,-11 4,-4 7,-5 12,-5l17 0 0 89z"/>
   <path class="fil0" d="M749 514c2,1 2,2 2,3l0 219c0,2 -1,3 -2,3 -1,1 -1,1 -2,1 -1,0 -2,-1 -3,-2l-131 -141c-1,-1 -1,-2 -1,-3 0,-1 1,-2 2,-3l131 -77c1,-1 2,-1 4,0z"/>
   <path class="fil0" d="M733 787c1,1 1,2 1,4 -1,1 -2,2 -4,2l-450 0c-3,0 -5,-1 -8,-2 -1,-1 -2,-2 -2,-3 0,-2 1,-3 2,-4l175 -163c1,-1 3,-1 5,0l46 26c7,4 13,4 20,0l53 -31c2,-1 4,-1 5,1l157 170z"/>
   <path class="fil0" d="M271 730c-1,0 -2,1 -3,1l-2 0c-1,-1 -2,-3 -2,-4l0 -206c0,-2 1,-3 2,-4 1,0 3,0 4,0l138 79c1,0 2,1 2,3 0,1 -1,2 -2,3l-137 128z"/>
   <path class="fil0" d="M735 435c5,0 8,-2 12,-5 3,-3 4,-7 4,-11l0 -48c0,-6 -5,-5 -9,-8l-232 -136c0,-1 -1,-1 -2,-1 -1,0 -2,0 -2,1l-239 136c-2,1 -3,2 -3,4l0 52c0,4 1,8 4,11 4,3 7,5 12,5l17 0 0 -57 422 0 0 57 16 0z"/>
   <path class="fil1" d="M329 455l0 49 177 101c0,0 1,0 2,0 1,0 2,0 2,0l177 -104 0 -46 0 -45 -358 0 0 45z"/>
  </g>
 </g>
</svg>
