<?xml version="1.0" encoding="UTF-8"?>
<!DOCTYPE svg PUBLIC "-//W3C//DTD SVG 1.1//EN" "http://www.w3.org/Graphics/SVG/1.1/DTD/svg11.dtd">
<!-- Creator: CorelDRAW X7 -->
<svg xmlns="http://www.w3.org/2000/svg" xml:space="preserve" width="10.1598mm" height="10.1598mm" version="1.1" style="shape-rendering:geometricPrecision; text-rendering:geometricPrecision; image-rendering:optimizeQuality; fill-rule:evenodd; clip-rule:evenodd"
viewBox="0 0 1016 1016"
 xmlns:xlink="http://www.w3.org/1999/xlink">
 <defs>
  <style type="text/css">
   <![CDATA[
    .fil0 {fill:#256D9B}
    .fil1 {fill:#EBA12C}
   ]]>
  </style>
 </defs>
 <g id="Capa_x0020_1">
  <metadata id="CorelCorpID_0Corel-Layer"/>
  <g id="_508082178992">
   <path class="fil0" d="M677 655c-3,15 16,47 -11,64 -13,9 -39,16 -53,1 -5,-5 -8,-14 -9,-22 -1,-12 0,-17 -6,-24 -15,-21 -43,-7 -43,13 0,18 2,36 10,50 5,8 16,24 25,27 -1,4 -3,6 -7,8 -18,11 -65,22 -65,-12l0 -447c0,-10 1,-22 3,-30 3,-15 7,-14 25,-14 35,0 69,16 85,43 7,14 6,22 24,26 7,2 11,3 18,6 10,4 13,4 23,3 17,0 33,1 49,0 2,0 3,1 4,0 -1,-7 -20,-25 -26,-30 -14,-12 -30,-17 -44,-22 -8,-3 -7,-11 -18,-23 -3,-3 -4,-4 -6,-7 -3,-4 -4,-3 -7,-6 -6,-5 -9,-8 -15,-12 -19,-12 -49,-23 -78,-26l-23 0c-7,1 -14,2 -21,4 -8,3 -11,6 -17,10 -20,-13 -26,-14 -47,-14l-9 0c-36,0 -83,20 -104,43 -6,7 -12,14 -17,23 -6,9 -5,7 -16,11 -27,9 -39,21 -55,38 -3,4 -3,4 -6,8 -16,25 -27,50 -27,82 0,34 3,58 16,88 6,15 2,3 -8,29 -15,40 -9,84 22,115 5,5 11,10 18,14l-1 23c0,24 13,47 27,58 16,12 39,24 62,24 1,6 10,17 14,21 17,18 45,30 72,32l19 0c8,0 16,-2 23,-5 6,-3 12,-8 17,-11 21,14 25,16 52,16 31,0 60,-12 79,-31 4,-4 13,-16 14,-22 11,0 26,-5 35,-8 29,-10 55,-39 55,-74l-2 -23c19,-10 35,-31 42,-50 1,-2 1,-3 1,-5 -4,-2 -19,-1 -25,-1 -6,0 -13,0 -19,0 -1,0 -6,0 -7,1 0,0 -8,8 -10,9 -9,8 -26,15 -30,25 -1,2 -1,3 -2,4zm-371 -59c0,25 35,23 51,45 29,37 12,54 29,67 16,12 38,1 38,-19 0,-11 -2,-20 -4,-28 -7,-26 -19,-43 -36,-61 -12,-11 -57,-44 -74,-17 -1,2 -4,10 -4,13zm24 -189c0,14 12,23 20,23l12 0c43,0 79,-32 85,-68 4,-23 -22,-36 -38,-23 -1,1 -4,5 -5,6 -2,2 -2,5 -3,7 -18,47 -48,19 -65,39 -3,4 -6,9 -6,16zm-69 29c0,-43 18,-82 60,-95 6,-2 12,-2 18,-4 12,-5 12,-14 18,-24 18,-32 54,-44 93,-44 14,0 15,4 18,14 2,8 2,20 2,30l0 447c0,36 -55,22 -70,8 -14,-13 -8,-26 -21,-34 -13,-8 -25,-1 -47,-9 -41,-15 -18,-55 -21,-69 -1,-5 -4,-9 -6,-12 -11,-11 -44,-15 -44,-61 0,-34 30,-63 69,-63 8,0 17,0 24,2 10,1 14,4 23,4 12,0 23,-10 23,-22 0,-18 -8,-23 -26,-27 -31,-8 -78,-7 -104,11 -5,-11 -9,-36 -9,-52z"/>
   <path class="fil1" d="M614 415l0 117 -48 53c28,0 55,0 82,0 14,0 27,0 40,0 14,0 27,0 40,0 21,0 41,0 62,0 26,0 22,0 48,0 2,0 4,0 6,-1l14 0c9,0 17,-7 17,-16l0 -173c0,-9 -8,-17 -17,-17l-228 0c-9,0 -16,8 -16,17l0 20zm45 17l172 0 0 24 -172 0 0 -24zm0 50l95 0 0 24 -95 0 0 -24z"/>
  </g>
 </g>
</svg>
