<?xml version="1.0" encoding="UTF-8"?>
<!DOCTYPE svg PUBLIC "-//W3C//DTD SVG 1.1//EN" "http://www.w3.org/Graphics/SVG/1.1/DTD/svg11.dtd">
<!-- Creator: CorelDRAW X7 -->
<svg xmlns="http://www.w3.org/2000/svg" xml:space="preserve" width="10.1598mm" height="10.1598mm" version="1.1" style="shape-rendering:geometricPrecision; text-rendering:geometricPrecision; image-rendering:optimizeQuality; fill-rule:evenodd; clip-rule:evenodd"
viewBox="0 0 1016 1016"
 xmlns:xlink="http://www.w3.org/1999/xlink">
 <defs>
  <style type="text/css">
   <![CDATA[
    .fil0 {fill:#256D9B}
    .fil1 {fill:#EBA12C}
   ]]>
  </style>
 </defs>
 <g id="Capa_x0020_1">
  <metadata id="CorelCorpID_0Corel-Layer"/>
  <g id="_507973283952">
   <path class="fil0" d="M701 743l-386 0 0 -429 39 0 3 0 -1 -3c-1,-3 -2,-6 -2,-9 -1,-3 -1,-6 -1,-9 0,-4 0,-8 2,-12 1,-4 2,-9 5,-12l1 -3 -63 0c-4,0 -7,1 -11,3 -4,2 -7,4 -10,7 -4,4 -7,8 -8,12 -2,5 -3,9 -3,14l0 452c0,11 4,20 11,27 3,3 7,6 12,8 4,2 9,3 14,3l410 0c10,0 20,-5 26,-11 4,-4 7,-8 8,-12 2,-5 3,-10 3,-15l0 -452c0,-10 -4,-19 -11,-26 -3,-3 -6,-5 -10,-7 -4,-2 -7,-3 -11,-3l-62 0 1 3c2,3 4,8 5,12 1,4 2,8 2,12 0,3 0,6 -1,9 0,3 -1,6 -2,9l-1 3 3 0 38 0 0 429zm-283 -405l181 0c24,0 43,-23 43,-46 0,-24 -19,-46 -43,-46l-33 0 0 -5c0,-32 -26,-58 -58,-58 -31,0 -58,26 -58,58l0 5 -32 0c-24,0 -43,22 -43,46 0,23 19,46 43,46zm110 -100c0,11 -9,21 -20,21 -11,0 -19,-10 -19,-21 0,-12 8,-21 19,-21 11,0 20,9 20,21z"/>
   <path class="fil1" d="M491 651l160 -186c6,-6 8,-15 8,-23 -1,-9 -5,-17 -11,-22l-8 -7c-14,-12 -34,-11 -46,2l-134 149 -40 -34c-14,-12 -34,-11 -46,2l-7 8c-5,7 -8,15 -8,24 0,8 4,16 11,22l74 68c6,6 15,9 24,9 9,-1 17,-5 23,-12z"/>
  </g>
 </g>
</svg>
