<?xml version="1.0" encoding="UTF-8"?>
<!DOCTYPE svg PUBLIC "-//W3C//DTD SVG 1.1//EN" "http://www.w3.org/Graphics/SVG/1.1/DTD/svg11.dtd">
<!-- Creator: CorelDRAW X7 -->
<svg xmlns="http://www.w3.org/2000/svg" xml:space="preserve" width="10.1598mm" height="10.1598mm" version="1.1" style="shape-rendering:geometricPrecision; text-rendering:geometricPrecision; image-rendering:optimizeQuality; fill-rule:evenodd; clip-rule:evenodd"
viewBox="0 0 1016 1016"
 xmlns:xlink="http://www.w3.org/1999/xlink">
 <defs>
  <style type="text/css">
   <![CDATA[
    .fil0 {fill:#256D9B;fill-rule:nonzero}
    .fil1 {fill:#EBA12C;fill-rule:nonzero}
   ]]>
  </style>
 </defs>
 <g id="Capa_x0020_1">
  <metadata id="CorelCorpID_0Corel-Layer"/>
  <g id="_507922671648">
   <path class="fil0" d="M357 402c9,0 17,4 23,10 6,6 10,14 10,23 0,10 -4,18 -10,24l0 0c-6,6 -14,9 -23,9 -10,0 -18,-3 -24,-9l0 0c-6,-6 -9,-14 -9,-24 0,-9 3,-17 9,-23l0 0c6,-6 14,-10 24,-10zm-117 304l-3 0c-1,0 -2,0 -3,0l0 0c-3,-1 -5,-3 -7,-5 -1,-2 -1,-5 0,-7 1,-5 4,-10 8,-16l1 -1c12,-14 20,-24 30,-40l4 -8 4 -10 4 -10 0 0 2 -3 -3 -2c-8,-5 -15,-10 -22,-16 -7,-5 -14,-11 -20,-18 -6,-6 -12,-13 -18,-19 -5,-7 -10,-14 -14,-22 -5,-7 -9,-15 -12,-22l0 0c-3,-8 -6,-16 -8,-24 -3,-8 -4,-16 -5,-24 -1,-8 -2,-16 -2,-25 0,-9 1,-19 2,-28 2,-10 4,-19 7,-28 3,-9 7,-18 11,-27l0 0c4,-8 10,-17 16,-25 5,-9 12,-17 19,-24 7,-8 15,-15 23,-21 8,-7 16,-13 26,-19 9,-6 19,-11 29,-16 10,-5 21,-9 32,-12 10,-4 21,-7 33,-10 11,-2 22,-4 34,-5 12,-1 24,-2 36,-2 12,0 24,1 35,2 12,1 24,3 35,5 11,3 22,6 33,10 11,3 21,7 31,12 11,5 20,10 30,16 9,6 18,12 26,19 16,13 30,28 42,45 6,8 11,17 15,25 5,9 9,18 11,27 6,18 9,37 9,56 0,10 0,20 -2,29 -1,10 -4,19 -7,28 -2,9 -6,18 -11,27l0 0c-4,8 -9,17 -15,25 -6,9 -13,16 -20,24 -7,7 -14,15 -22,21 -8,7 -17,13 -26,19 -10,5 -19,11 -30,16 -10,4 -20,9 -31,12 -11,4 -22,7 -33,9 -11,3 -23,5 -35,6 -11,1 -23,2 -35,2 -6,0 -11,0 -17,-1l0 0c-5,0 -11,0 -17,-1 -5,-1 -11,-1 -16,-2 -6,-1 -12,-2 -17,-3l0 0 -2 0 -2 1c-8,6 -16,12 -24,17 -9,6 -17,11 -26,15l0 0c-12,6 -24,11 -37,16 -12,4 -24,8 -36,11 -4,1 -7,1 -10,1zm207 -304c9,0 17,4 23,10 6,6 10,14 10,23 0,10 -4,18 -10,24l0 0c-6,6 -14,9 -23,9 -9,0 -17,-3 -23,-9l0 0c-6,-6 -10,-14 -10,-24 0,-9 4,-17 10,-23 6,-6 14,-10 23,-10zm114 10c6,6 10,14 10,23 0,10 -4,18 -10,24l0 0c-6,6 -14,9 -24,9 -9,0 -17,-3 -23,-9 -6,-6 -10,-14 -10,-24 0,-9 4,-17 10,-23l0 0c13,-13 34,-13 47,0zm-246 218l10 -6 13 -9 12 -8 14 -12 1 -1 2 1 17 3 0 0c5,1 10,2 15,3 5,1 10,1 15,2 5,0 10,1 15,1 5,0 10,0 15,0 10,0 20,0 29,-1 10,-1 19,-2 29,-4l0 0c9,-2 18,-4 27,-7 9,-3 18,-7 27,-10 8,-4 17,-8 24,-13 8,-4 16,-9 23,-14 7,-5 13,-11 19,-17 6,-6 12,-12 17,-19 5,-6 10,-13 14,-20 3,-6 7,-13 9,-20l0 0c3,-8 5,-15 6,-22 1,-7 2,-15 2,-23 0,-7 -1,-15 -2,-22 -1,-7 -3,-15 -6,-22 -56,-157 -319,-174 -414,-41 -10,14 -18,27 -23,41l0 0c-5,15 -8,29 -8,44 0,6 1,13 2,19 1,6 2,11 4,17l0 0c1,6 4,12 6,18 3,5 6,11 9,17 4,5 8,11 12,16 4,5 9,10 14,15 4,5 10,10 15,14 6,5 12,9 18,13l32 21 3 2 -1 2 -12 31 -4 11z"/>
   <path class="fil1" d="M740 403c9,4 15,9 22,15 5,3 9,7 12,10l0 0c6,6 11,11 16,17 5,6 9,13 13,19l0 0c4,7 8,13 11,20 3,7 5,14 7,21 2,7 4,14 5,21 1,7 1,15 1,22 0,7 0,14 -1,22 -1,7 -2,14 -4,20 -2,7 -5,14 -8,20 -2,7 -6,14 -10,20 -4,6 -8,12 -12,18 -5,6 -10,12 -15,17 -6,6 -11,11 -17,16 -6,4 -13,9 -19,14l-2 1 0 2 0 0 4 9 3 8c3,4 5,9 8,13l0 0c3,4 6,8 9,13l2 3c6,6 19,21 19,30 1,5 -2,8 -8,8l0 0c-7,1 -18,-2 -31,-6 -17,-5 -35,-13 -45,-18l0 0c-7,-4 -15,-8 -22,-13 -7,-5 -14,-10 -21,-15l0 0 -1 -1 -1 0 0 0c-77,16 -157,2 -200,-48l8 0c23,0 45,-3 66,-7 62,-12 116,-41 155,-81 39,-40 62,-90 62,-145 0,-12 -2,-25 -4,-38l-2 -7z"/>
  </g>
 </g>
</svg>
