<?xml version="1.0" encoding="UTF-8"?>
<!DOCTYPE svg PUBLIC "-//W3C//DTD SVG 1.1//EN" "http://www.w3.org/Graphics/SVG/1.1/DTD/svg11.dtd">
<!-- Creator: CorelDRAW X7 -->
<svg xmlns="http://www.w3.org/2000/svg" xml:space="preserve" width="10.1598mm" height="10.1598mm" version="1.1" style="shape-rendering:geometricPrecision; text-rendering:geometricPrecision; image-rendering:optimizeQuality; fill-rule:evenodd; clip-rule:evenodd"
viewBox="0 0 1016 1016"
 xmlns:xlink="http://www.w3.org/1999/xlink">
 <defs>
  <style type="text/css">
   <![CDATA[
    .fil0 {fill:#EBA12C}
    .fil1 {fill:#256D9B;fill-rule:nonzero}
   ]]>
  </style>
 </defs>
 <g id="Capa_x0020_1">
  <metadata id="CorelCorpID_0Corel-Layer"/>
  <g id="_508082136240">
   <path class="fil0" d="M553 327l0 118 0 143 0 4c0,9 -7,16 -16,16l-52 0c-9,0 -16,-7 -16,-16l0 -4 0 -105 0 -1 0 -2c0,-24 -1,-39 -2,-44 -1,-6 -5,-10 -10,-12 -6,-3 -18,-4 -38,-4l-8 0 0 -40c41,-8 71,-26 92,-53l50 0z"/>
   <path class="fil1" d="M707 743c1,4 0,9 -1,13l0 0c-1,2 -2,4 -3,6 -1,1 -3,3 -4,4 -2,2 -4,3 -6,4 -2,1 -4,1 -6,2l0 0c-4,0 -7,0 -11,-1l0 0c-4,-1 -8,-4 -12,-7l0 0 0 0 0 0c-1,-1 -2,-3 -3,-4 -1,-2 -2,-4 -3,-5l0 0c-1,-2 -2,-4 -3,-7 -1,-2 -2,-4 -3,-7 -1,-2 -2,-4 -3,-7l0 0c0,-2 -1,-5 -2,-7l0 0 0 0c-1,-3 -2,-6 -2,-8l0 0c-1,-2 -2,-5 -2,-6l0 0 0 -1 0 0 0 0c-17,-76 7,-117 33,-160l0 0 0 0 0 -1 0 0c5,-7 9,-15 14,-22l0 0c4,-8 8,-17 11,-25l0 0c3,-9 6,-19 8,-29 2,-10 3,-22 3,-34 0,-16 -2,-32 -5,-46 -3,-15 -8,-29 -15,-42 -6,-13 -14,-25 -23,-36 -10,-12 -20,-22 -32,-31 -6,-5 -13,-9 -21,-14 -7,-4 -15,-7 -22,-11l0 0c-8,-3 -16,-6 -24,-8 -9,-2 -17,-4 -25,-6 -9,-1 -17,-2 -26,-2 -8,-1 -17,0 -26,0 -8,1 -16,2 -25,4 -8,1 -16,3 -24,6l-3 1 0 0c-10,4 -19,8 -28,13 -10,6 -20,12 -28,19 -9,7 -17,15 -24,24 -7,9 -14,18 -20,28 -3,7 -7,15 -11,23 -3,8 -6,17 -9,26 -2,8 -4,17 -6,26 -7,44 8,27 15,52 2,17 -12,36 -24,52 -3,5 -7,9 -9,14 -2,2 -3,5 -4,7 -3,7 -3,12 -1,16 1,4 4,8 7,10 1,0 3,1 4,2 12,4 12,18 13,35 0,6 0,14 1,21 1,12 6,24 10,35 3,9 7,18 8,26 3,27 25,29 46,27 6,-1 11,-2 17,-3 2,0 5,-1 7,-1 16,-3 28,-1 38,4 9,6 17,15 24,27 1,4 3,7 5,11 2,3 4,7 6,10 1,3 3,7 5,11 2,3 3,6 4,8l0 0c2,3 3,6 4,8 0,1 0,2 1,3l0 1c1,5 2,10 1,14 -1,4 -3,8 -5,11l0 0c-2,1 -3,2 -5,3 -1,1 -3,2 -5,3l-1 0c-1,0 -2,1 -2,1 -2,0 -3,0 -4,0l0 0 -2 0 0 0 -2 0 -1 0c-1,0 -1,0 -2,0 -1,-1 -2,-1 -3,-1l0 0c-3,-1 -7,-4 -11,-7 -3,-3 -6,-7 -8,-11 -5,-11 -11,-21 -16,-31l-6 -12c-3,-5 -20,-1 -30,1 -2,0 -4,0 -5,1l0 0c-75,9 -88,-31 -92,-57 0,-4 0,-8 -1,-12l0 0c0,-5 0,-8 -1,-10l0 0c-11,-16 -11,-26 -11,-31 0,-3 1,-5 -1,-7 -12,-12 -11,-20 -10,-32 0,-2 1,-4 1,-6l0 -1 -1 -1c-12,-7 -21,-14 -26,-23 -6,-9 -8,-19 -5,-33l0 0c3,-16 16,-36 24,-50l0 0 4 -5 0 0 0 0 0 -1 0 0 0 0 0 0 0 0c2,-3 4,-6 5,-8 2,-2 3,-4 4,-5l1 -2 -1 -1c-1,-1 -2,-3 -3,-5l0 0c-1,-1 -2,-4 -4,-6 -3,-6 -4,-12 -5,-19 -1,-8 -1,-16 -1,-25 1,-10 3,-21 5,-30 3,-13 6,-24 9,-33l0 -1 0 0c7,-19 15,-36 24,-51 10,-17 22,-31 34,-44 13,-13 28,-25 43,-34 16,-10 33,-18 51,-24 10,-3 20,-6 30,-8 10,-2 21,-4 31,-4 11,-1 21,-1 32,-1 11,0 21,1 32,3 10,2 21,4 31,7 10,3 20,7 30,11l0 0c10,4 19,8 28,14 9,5 18,11 26,17 15,11 29,24 41,38 11,14 21,30 30,47 8,16 14,34 18,53 4,18 7,37 7,58 1,64 -22,102 -44,138l0 0 0 0 0 0 0 0 0 1c-10,16 -20,32 -25,51 -6,19 -8,41 -2,69l0 0 1 2c0,1 0,2 1,4 1,3 12,33 12,37z"/>
  </g>
 </g>
</svg>
