<?xml version="1.0" encoding="UTF-8"?>
<!DOCTYPE svg PUBLIC "-//W3C//DTD SVG 1.1//EN" "http://www.w3.org/Graphics/SVG/1.1/DTD/svg11.dtd">
<!-- Creator: CorelDRAW X7 -->
<svg xmlns="http://www.w3.org/2000/svg" xml:space="preserve" width="10.1598mm" height="10.1598mm" version="1.1" style="shape-rendering:geometricPrecision; text-rendering:geometricPrecision; image-rendering:optimizeQuality; fill-rule:evenodd; clip-rule:evenodd"
viewBox="0 0 1016 1016"
 xmlns:xlink="http://www.w3.org/1999/xlink">
 <defs>
  <style type="text/css">
   <![CDATA[
    .fil1 {fill:#EBA12C}
    .fil0 {fill:#256D9B;fill-rule:nonzero}
   ]]>
  </style>
 </defs>
 <g id="Capa_x0020_1">
  <metadata id="CorelCorpID_0Corel-Layer"/>
  <g id="_507714730192">
   <path class="fil0" d="M430 385c-1,3 -2,5 -4,8l0 0c0,3 1,8 2,13l1 1 0 1c0,2 0,3 1,4l0 0c0,1 0,0 0,1l0 0c2,2 4,5 5,7 1,3 2,5 2,8l1 0c3,22 14,43 27,59 13,14 28,23 41,23 15,0 30,-9 43,-23 16,-16 28,-38 31,-59l0 -1c1,-2 2,-5 3,-7 1,-2 2,-5 4,-7l1 0 0 0 0 -1c0,1 0,0 0,0l0 0c0,0 0,-1 1,-2l0 -2 0 0c2,-7 3,-12 3,-15 0,-1 0,-1 0,0l1 0 0 0 -1 -1c-2,-4 -3,-8 -4,-12 -1,-4 -1,-8 0,-12l0 0c3,-11 7,-27 5,-43 -2,-10 -5,-19 -12,-27l0 -1c-1,-1 -4,-4 -9,-8 -6,-5 -15,-10 -27,-13l-1 0 -16 -6 0 0c-7,-2 -14,-4 -19,-5 -7,-2 -11,-2 -13,-3l-2 1 0 0c-1,0 -2,0 -3,0l0 0 -1 0 -11 1c-4,2 -13,6 -23,14 -10,8 -21,19 -26,34l0 1c0,1 -1,5 -2,13 0,9 1,23 4,44l0 0c1,5 0,11 -2,15zm109 159l0 28c0,4 -3,8 -7,8l25 132 -48 37 -48 -37 26 -132c-4,-1 -7,-4 -7,-8l0 -26c-4,-2 -8,-3 -12,-5 -8,-4 -15,-8 -23,-14 -1,2 -3,3 -4,3l0 0c-10,7 -22,13 -34,19 -18,8 -36,14 -47,17 -7,3 -12,6 -15,9 -3,2 -4,3 -5,4 -9,14 -16,35 -21,57 -11,46 -12,93 -12,94l0 0c0,2 0,4 0,5 34,14 78,23 114,29 38,6 68,8 77,8l0 0 3 0c8,0 15,0 22,0 7,0 14,-1 22,-2l0 0c24,-2 60,-7 96,-15 23,-5 46,-12 66,-20 0,-1 0,-3 0,-5 0,-7 -1,-34 -7,-66 -4,-30 -13,-65 -27,-86 -1,-1 -7,-7 -20,-12l-3 -1 -2 -1 -1 0c-19,-9 -36,-15 -39,-16l0 0 0 0c-2,0 -4,-1 -7,-2 -2,-1 -5,-2 -7,-3l-1 -1c-4,-2 -6,-3 -7,-3l0 0c-2,-1 -4,-2 -6,-4l0 0 -2 -1 -10 -6c-8,6 -16,10 -24,14 -2,1 -3,1 -5,2zm-62 -320l30 0 0 0c3,1 7,2 10,2 7,2 15,4 23,7l1 0 16 5 0 0c17,5 29,13 38,19 10,7 15,14 17,16l0 0c12,14 17,31 20,47 2,20 -1,40 -4,54 2,5 4,12 3,21 0,6 -1,13 -4,22 -1,5 -2,8 -3,12l0 0c-2,3 -3,6 -6,8 -4,21 -13,42 -26,60 1,0 1,0 1,0l1 0 3 2 25 12c5,2 22,8 41,17l2 0 2 1c24,9 35,23 37,25l1 0 1 1c17,27 28,68 33,103 6,34 7,64 8,70l0 1c0,9 -1,15 -3,19 -3,12 -10,17 -12,19l-1 0 -2 1c-24,11 -52,19 -79,25 -39,9 -76,14 -102,16l0 0c-8,1 -16,2 -23,2 -9,1 -17,1 -24,1l-3 0 -2 0c-6,-1 -40,-3 -80,-9 -42,-6 -91,-17 -131,-34l0 0c-4,-2 -12,-8 -15,-20 -2,-5 -3,-11 -3,-19l0 0c0,-1 2,-53 13,-103 6,-26 15,-52 28,-71l0 -1 1 0c1,-2 5,-6 11,-11 6,-5 15,-11 26,-15l1 0c10,-3 27,-9 44,-16 11,-5 21,-10 28,-15l0 0 0 -1 3 -2c-11,-18 -19,-37 -23,-58 -2,-3 -4,-6 -5,-9l0 0c-2,-4 -3,-8 -4,-13 -2,-8 -3,-15 -4,-21 0,-9 2,-16 6,-22l0 -1c-3,-21 -3,-36 -3,-47 1,-13 3,-20 4,-24l0 0c8,-24 24,-41 39,-53 14,-11 28,-18 33,-19l0 -1c2,0 4,-1 6,-1 2,-1 4,-1 5,-2l0 0 1 0zm117 170l-1 -1 -1 0c1,0 3,3 2,1l0 0zm-6 18c0,0 0,0 0,0l0 0z"/>
   <path class="fil1" d="M686 374l1 0c2,-2 3,-5 3,-7 -6,-33 -2,-46 -1,-50 9,-28 39,-42 45,-44 1,-1 3,-1 6,-2l0 0 5 0 0 0 1 0c1,0 2,0 3,0l1 -1c1,0 13,2 30,7l12 4c21,6 31,18 33,21 18,20 13,49 9,65 -1,2 0,4 1,6l1 1c1,2 2,8 -2,22 -1,5 -2,8 -4,10 -1,1 -2,3 -2,4 -6,35 -37,73 -69,73 -28,0 -60,-35 -65,-73 -1,-1 -1,-3 -2,-4 -2,-2 -4,-6 -5,-11 -3,-10 -3,-18 -1,-21z"/>
   <path class="fil1" d="M700 518l-3 -1c-5,-2 -10,-5 -15,-7 7,-4 13,-7 18,-11 1,0 1,-1 2,-1 2,-2 4,-5 6,-7l2 -2 1 2c14,14 30,21 44,21 16,0 31,-6 45,-19l2 -1 2 1c3,3 8,6 10,7l2 2 0 0 2 1c2,2 5,3 9,5 3,2 6,3 9,4 0,0 14,5 31,12l3 1c14,6 21,14 21,15 24,37 28,117 28,126 0,12 -3,15 -4,16 -45,20 -109,28 -136,31 -3,-37 -11,-123 -40,-168l-2 -1c-5,-8 -18,-19 -37,-26z"/>
   <path class="fil1" d="M331 374l-1 0c-2,-2 -3,-5 -3,-7 5,-33 2,-46 1,-50 -10,-29 -39,-42 -45,-44 -1,-1 -3,-1 -6,-2l-1 0 -4 0 0 0 -1 0c-1,0 -2,0 -3,0l-2 -1c0,0 -12,2 -29,7l-12 4c-22,6 -32,18 -34,21 -17,20 -12,49 -8,65 1,2 0,4 -1,6l-1 1c-1,2 -2,8 2,22 0,5 2,8 4,10 1,1 2,3 2,4 6,34 37,73 69,73 28,0 59,-36 65,-73 0,-1 1,-3 2,-4 2,-2 4,-6 5,-11 2,-10 3,-18 1,-21z"/>
   <path class="fil1" d="M314 518l3 -1c5,-2 10,-5 16,-7 -8,-4 -14,-7 -19,-11 0,0 -1,-1 -2,-2 -1,-1 -4,-4 -6,-6l-1 -2 -2 2c-14,14 -30,21 -44,21 -15,0 -31,-7 -45,-19l-1 -1 -3 1c-3,3 -8,6 -10,7l-2 2 0 0 -1 1c-3,2 -6,3 -9,5 -4,1 -7,3 -10,4 0,0 -14,5 -30,12l-3 1c-15,6 -21,14 -22,15 -24,37 -28,117 -28,125 0,13 3,16 4,16 45,21 109,29 137,32 2,-37 11,-123 40,-168l1 -1c6,-8 19,-19 37,-26z"/>
  </g>
 </g>
</svg>
