<?xml version="1.0" encoding="UTF-8"?>
<!DOCTYPE svg PUBLIC "-//W3C//DTD SVG 1.1//EN" "http://www.w3.org/Graphics/SVG/1.1/DTD/svg11.dtd">
<!-- Creator: CorelDRAW X7 -->
<svg xmlns="http://www.w3.org/2000/svg" xml:space="preserve" width="10.1598mm" height="10.1598mm" version="1.1" style="shape-rendering:geometricPrecision; text-rendering:geometricPrecision; image-rendering:optimizeQuality; fill-rule:evenodd; clip-rule:evenodd"
viewBox="0 0 1016 1016"
 xmlns:xlink="http://www.w3.org/1999/xlink">
 <defs>
  <style type="text/css">
   <![CDATA[
    .fil1 {fill:#EBA12C}
    .fil0 {fill:#256D9B;fill-rule:nonzero}
   ]]>
  </style>
 </defs>
 <g id="Capa_x0020_1">
  <metadata id="CorelCorpID_0Corel-Layer"/>
  <g id="_507698669104">
   <path class="fil0" d="M422 430c14,0 35,-12 53,-22 5,-3 11,-6 17,-9 25,-12 46,-23 67,-26 23,-3 44,3 65,24l44 42 0 0 26 26c4,4 10,11 16,17 13,14 25,26 40,39l1 0c7,6 13,12 17,17 13,13 18,18 50,12 7,-1 13,-2 18,-3 25,-3 27,-3 27,-57l0 0 0 -4c0,-31 0,-121 -4,-136 -2,-8 -7,-8 -12,-7 -3,1 -5,2 -8,2 -3,1 -6,2 -10,3l0 1 -9 2 0 0c-24,7 -60,18 -82,9 -11,-5 -21,-14 -29,-21l-1 -1 0 0 -8 -7 0 0c-6,-5 -12,-10 -17,-15l0 0c-7,-5 -14,-13 -21,-20l0 0c-12,-13 -24,-26 -35,-26 -15,0 -19,2 -28,7 -3,3 -8,5 -14,8l0 0c-2,2 -3,2 -5,3l0 0 -4 2 0 1c-14,7 -25,13 -37,20 -42,23 -92,50 -121,70 -10,7 -15,13 -18,20 -1,4 -1,9 0,12 2,4 4,8 7,11 5,3 10,6 15,6zm471 -14l0 97c-2,57 -9,58 -52,64 -5,1 -11,2 -18,3 -55,9 -56,-5 -92,-36l0 0c-16,-13 -29,-27 -42,-41 -5,-4 -9,-9 -17,-16l-26 -26 0 0 -43 -43 0 0c-14,-13 -26,-17 -40,-15 -16,2 -35,12 -58,23 -4,2 -10,6 -16,9 -21,11 -45,25 -67,25 -13,0 -25,-5 -34,-13l-1 0c-7,-7 -12,-15 -15,-24 -3,-10 -4,-21 0,-31 4,-13 13,-25 29,-36 31,-21 81,-49 124,-72 14,-8 28,-15 36,-20l0 0 4 -2 0 0c1,-1 3,-2 6,-4l0 0c6,-2 10,-5 13,-7 14,-8 20,-11 43,-11 24,0 41,18 57,35l0 0c6,7 12,13 18,17l0 1c7,5 13,11 18,16l0 0 8 6 0 0 1 1 0 0c6,6 14,13 21,16 12,5 42,-4 62,-10l0 0 9 -3 0 0c3,0 6,-1 9,-2 3,-1 6,-2 9,-3 22,-6 40,-6 49,28 3,10 4,41 5,74zm-631 190c0,-9 -3,-14 -10,-19l-2 -1c-18,-8 -33,0 -44,15 -9,11 -12,24 -8,37l0 1c1,2 2,4 4,6 2,2 5,3 9,3 9,-1 38,-11 43,-2 6,11 -21,41 0,51 15,7 30,-12 44,0 14,13 -11,37 0,48 8,7 25,4 34,0 6,-3 22,-12 25,-18 3,-6 5,-21 3,-28 -4,-7 -11,-13 -20,-13 -5,0 -27,2 -30,-1 -2,-3 1,-16 1,-20 4,-25 -11,-33 -34,-29 -17,3 -16,-2 -15,-17 0,-5 0,-9 0,-13zm4 140l0 0c-1,-6 -1,-11 0,-17 -21,1 -35,-6 -46,-24 -5,-9 -7,-17 -5,-27 -2,1 -3,1 -4,1 -13,0 -23,-5 -31,-13 -5,-4 -8,-10 -11,-17l0 0c-2,-7 -3,-14 -3,-21 0,-18 7,-38 22,-53 11,-11 23,-18 36,-21 12,-3 26,-2 40,5 24,12 28,29 29,45 10,1 21,4 33,16 10,8 14,18 16,27 0,3 0,6 0,9 13,0 25,6 34,15l0 0c9,9 15,22 15,34l0 1 0 4 3 0c10,1 19,5 26,9 12,8 19,21 22,34 3,15 1,32 -6,43l0 0c-5,9 -12,16 -20,22 -8,6 -17,11 -27,14l0 0c-8,2 -17,3 -24,3 -8,-1 -16,-2 -23,-5 -22,-10 -31,-26 -26,-49 0,-2 0,-2 -3,-2 -1,0 -2,0 -3,0 -10,0 -19,-2 -27,-7l0 0c-8,-6 -15,-14 -17,-26zm99 58c5,1 11,0 16,-2l0 0c6,-1 12,-4 17,-8 5,-3 9,-8 12,-13l0 0c3,-5 4,-14 3,-22 -2,-6 -5,-11 -10,-15 -8,-4 -18,-7 -26,-1 -4,4 -8,7 -13,11 -10,7 -13,13 -17,25 -2,10 -2,19 8,24 3,1 7,1 10,1z"/>
   <path class="fil1" d="M235 339c-34,-2 -54,-13 -85,-25 -48,-18 -71,168 -36,244 8,18 24,20 36,23 39,-102 168,-64 174,-1 18,1 44,21 51,40 5,11 1,6 13,12 9,4 16,10 22,17 7,7 13,23 14,35 16,2 34,18 41,28 19,29 8,51 10,66 3,11 22,22 34,23 15,0 30,-8 36,-21 5,-10 0,-13 -6,-19 -9,-11 -18,-22 -27,-32 -14,-17 -27,-33 -41,-50 -2,-2 -4,-5 -7,-8 -4,-6 -4,-14 2,-19 6,-5 14,-4 19,2 27,32 53,64 80,96 2,3 5,3 8,5 10,4 16,4 26,-1 9,-5 18,-16 18,-26 0,-2 -1,-3 -3,-5 -4,-6 -10,-12 -14,-17 -25,-29 -49,-58 -73,-87l-1 0c-5,-6 -4,-15 2,-19 5,-5 14,-4 19,1 29,35 58,69 87,104 5,6 8,7 16,6 17,-1 33,-14 31,-32l0 -3c-1,-4 -2,-4 -4,-7 -29,-32 -58,-64 -86,-95 -2,-2 -4,-4 -6,-7 -5,-5 -5,-14 1,-18 5,-5 14,-5 19,0 28,32 57,63 85,94 8,10 12,17 26,13 4,-1 7,-3 11,-6 6,-6 8,-16 8,-24 0,-20 -7,-27 -19,-39l-34 -34c-24,-24 -45,-47 -69,-70 -30,-32 -46,-47 -93,-20l-47 21c-30,12 -68,25 -106,-1 -40,-28 -60,-111 -4,-146 11,-7 23,-14 34,-20l64 -36c-43,-13 -122,6 -152,25l-22 11c-18,11 -30,22 -52,22z"/>
  </g>
 </g>
</svg>
