<?xml version="1.0" encoding="UTF-8"?>
<!DOCTYPE svg PUBLIC "-//W3C//DTD SVG 1.1//EN" "http://www.w3.org/Graphics/SVG/1.1/DTD/svg11.dtd">
<!-- Creator: CorelDRAW X7 -->
<svg xmlns="http://www.w3.org/2000/svg" xml:space="preserve" width="10.1598mm" height="10.1598mm" version="1.1" style="shape-rendering:geometricPrecision; text-rendering:geometricPrecision; image-rendering:optimizeQuality; fill-rule:evenodd; clip-rule:evenodd"
viewBox="0 0 1016 1016"
 xmlns:xlink="http://www.w3.org/1999/xlink">
 <defs>
  <style type="text/css">
   <![CDATA[
    .fil0 {fill:#256D9B}
    .fil1 {fill:#EBA12C}
   ]]>
  </style>
 </defs>
 <g id="Capa_x0020_1">
  <metadata id="CorelCorpID_0Corel-Layer"/>
  <g id="_507698674896">
   <path class="fil0" d="M221 769l40 0c17,0 31,-14 31,-31l0 -103c-33,5 -67,8 -102,9l0 0 0 94c0,17 14,31 31,31z"/>
   <path class="fil0" d="M405 769c17,0 31,-14 31,-31l0 -138c-16,6 -34,11 -51,16 -16,4 -32,8 -48,11 -1,0 -2,0 -3,1l0 110c0,17 14,31 31,31l40 0 0 0z"/>
   <path class="fil0" d="M549 769c17,0 31,-14 31,-31l0 -207c-3,2 -6,4 -9,6 -27,16 -55,31 -86,44 -2,2 -5,3 -8,4l0 153c0,17 14,31 32,31l40 0 0 0z"/>
   <path class="fil0" d="M724 738l0 -362c-7,13 -14,25 -22,38 -18,27 -41,52 -68,76 -4,4 -8,7 -13,11l0 237c0,17 14,31 32,31l39 0c18,0 32,-14 32,-31z"/>
   <path class="fil1" d="M177 595l0 0c4,0 9,-1 13,-1 35,-1 69,-4 102,-9 14,-2 28,-4 42,-7 15,-3 31,-7 46,-11 19,-5 38,-11 56,-17 14,-5 28,-11 41,-17 30,-12 58,-27 84,-43 6,-4 13,-8 19,-13 15,-10 29,-21 41,-32 26,-22 47,-46 65,-72 17,-26 30,-53 38,-81 3,-12 6,-25 8,-37l14 0c12,0 20,-15 13,-25l-46 -67c-3,-4 -8,-6 -13,-6 -5,0 -10,2 -13,6l-46 67c-7,10 0,25 13,25l14 0c-5,28 -16,56 -34,83 -4,6 -8,11 -13,17 -12,15 -25,29 -41,43 -16,14 -33,27 -53,39 -16,10 -32,19 -50,28 -13,6 -27,12 -41,18 -23,9 -47,17 -72,23 -10,3 -20,6 -31,8 -13,3 -27,5 -41,8 -33,5 -67,8 -102,10 -5,0 -9,0 -13,0 -9,0 -16,7 -16,16l0 31c0,9 7,16 16,16z"/>
  </g>
 </g>
</svg>
