<?xml version="1.0" encoding="UTF-8"?>
<!DOCTYPE svg PUBLIC "-//W3C//DTD SVG 1.1//EN" "http://www.w3.org/Graphics/SVG/1.1/DTD/svg11.dtd">
<!-- Creator: CorelDRAW X7 -->
<svg xmlns="http://www.w3.org/2000/svg" xml:space="preserve" width="10.1598mm" height="10.1598mm" version="1.1" style="shape-rendering:geometricPrecision; text-rendering:geometricPrecision; image-rendering:optimizeQuality; fill-rule:evenodd; clip-rule:evenodd"
viewBox="0 0 1016 1016"
 xmlns:xlink="http://www.w3.org/1999/xlink">
 <defs>
  <style type="text/css">
   <![CDATA[
    .fil0 {fill:#256D9B}
    .fil1 {fill:#EBA12C}
    .fil2 {fill:#256D9B;fill-rule:nonzero}
   ]]>
  </style>
 </defs>
 <g id="Capa_x0020_1">
  <metadata id="CorelCorpID_0Corel-Layer"/>
  <g id="_507714680368">
   <path class="fil0" d="M495 330l-1 0 0 0c-23,3 -43,16 -56,34 -13,18 -19,41 -16,64l0 1 0 0c4,23 17,44 36,57 14,11 31,17 50,17l0 0c19,0 37,-6 50,-17 19,-13 32,-34 36,-57l0 0 0 -1c3,-23 -3,-46 -16,-64 -13,-18 -32,-31 -56,-34l0 0 -1 0c-2,-1 -5,-1 -7,-1l0 0 -5 0 -2 0 -5 0 0 0c-2,0 -4,0 -7,1z"/>
   <path class="fil1" d="M614 740c54,13 89,34 89,58 0,38 -87,69 -194,69 -107,0 -194,-31 -194,-69 0,-24 35,-45 88,-57 23,25 46,48 68,67 1,2 3,3 5,5l0 0 2 1 0 1 2 0 2 2 0 0c8,4 17,7 26,7l0 0c9,0 18,-3 26,-7l4 -2 0 -1 2 -1 0 0c2,-2 4,-3 5,-5 22,-20 45,-43 69,-68z"/>
   <path class="fil2" d="M511 783l-6 0c-3,0 -7,-1 -11,-3l0 0 0 0c-1,-1 -2,-1 -3,-2l0 0c-1,-1 -2,-1 -2,-2l0 0c-19,-17 -39,-36 -58,-56l0 0c-18,-18 -35,-37 -51,-57 -15,-18 -29,-37 -43,-56 -12,-17 -23,-35 -33,-54 -9,-17 -17,-34 -23,-51 -6,-17 -11,-33 -15,-50 -3,-15 -4,-31 -4,-46 0,-15 1,-30 4,-45 1,-3 2,-6 3,-10 1,-3 2,-6 3,-10l0 0c1,-3 2,-6 3,-9l0 0c1,-3 2,-5 3,-8l0 0 1 -2 0 0c2,-4 3,-7 5,-10l0 0c1,-2 3,-5 4,-8l0 0 1 -1c1,-3 3,-6 5,-9l0 0c1,-2 2,-4 4,-7l0 0 1 -2c6,-9 11,-16 17,-24 6,-7 13,-15 20,-21 7,-7 14,-13 22,-19l0 0c7,-6 15,-12 24,-17l0 1c10,-6 20,-12 30,-16 11,-5 22,-8 33,-11 9,-3 19,-5 28,-6 9,-2 17,-3 26,-3l0 -1 3 0 1 0 0 0 5 0 5 0 0 0 1 0 4 0 0 1c8,0 17,1 25,3 10,1 19,3 29,6 11,3 21,6 32,11l0 0c10,4 21,10 31,16l0 -1c8,5 16,11 23,17l1 0c7,6 14,12 21,19 7,6 14,14 20,21 6,8 12,15 17,24l2 2 0 0 4 7 0 0c1,3 3,6 5,9l0 1 0 0c2,2 3,5 4,8 2,3 3,6 5,10l0 0 1 2 0 0c1,3 2,6 3,8 1,3 2,6 3,9 1,4 2,7 3,10l0 0c1,4 2,7 3,10 3,15 5,30 5,45 0,15 -2,31 -5,46 -3,17 -8,33 -14,50 -7,17 -15,34 -24,51 -10,19 -21,37 -33,54 -13,19 -28,38 -42,56 -17,20 -34,39 -51,57l0 0c-20,20 -40,39 -58,56l0 0c-1,1 -2,1 -3,2l0 0c-1,1 -2,1 -3,2l0 0 0 0c-4,2 -7,3 -11,3zm12 -570c-5,0 -10,0 -15,0l0 0 0 0 0 0c-5,0 -10,0 -15,0 -4,1 -9,2 -14,2 -6,1 -11,2 -17,4 -5,1 -11,3 -16,4l0 0c-5,2 -11,4 -16,6 -5,3 -10,5 -15,8 -5,2 -10,5 -15,8 -4,3 -9,6 -13,10l-1 1 -1 0c-4,3 -8,6 -12,10 -4,3 -8,7 -12,11 -4,5 -7,9 -11,13l0 0c-3,5 -7,9 -10,14 -3,5 -6,10 -9,14 -2,5 -5,11 -7,16 -2,5 -4,10 -6,15 -2,5 -4,11 -5,16 -3,11 -4,23 -4,36l0 0c0,13 1,26 3,40 3,14 7,28 12,43 6,14 12,29 20,44l1 2c8,16 18,33 28,49 11,17 23,33 35,49 13,17 27,32 40,46 14,15 28,28 41,38l0 1 1 0 0 0 5 4 0 0 0 0c3,3 6,5 8,7 2,1 4,3 5,3 4,-2 8,-5 13,-10l0 0 0 0 6 -4 0 0 0 -1c13,-10 27,-23 41,-38 13,-14 27,-29 40,-46 12,-16 24,-32 35,-49 11,-16 20,-33 29,-49l1 -2 0 0c7,-15 13,-30 19,-44 5,-15 9,-29 12,-43 2,-14 4,-27 4,-40l0 0c0,-13 -2,-25 -5,-36 -1,-5 -3,-11 -5,-16 -1,-5 -3,-10 -6,-15l0 0c-2,-6 -4,-11 -7,-16 -3,-4 -6,-9 -9,-14 -3,-5 -6,-9 -10,-14 -3,-4 -7,-8 -11,-13 -4,-4 -8,-8 -12,-11 -4,-4 -8,-7 -12,-10l0 0 -1 -1c-5,-4 -9,-7 -14,-10 -5,-3 -10,-6 -15,-8 -5,-3 -10,-5 -15,-8 -5,-2 -10,-4 -16,-6l0 0c-5,-1 -10,-3 -16,-4 -5,-2 -11,-3 -17,-4 -4,0 -9,-1 -14,-2z"/>
  </g>
 </g>
</svg>
