<?xml version="1.0" encoding="UTF-8"?>
<!DOCTYPE svg PUBLIC "-//W3C//DTD SVG 1.1//EN" "http://www.w3.org/Graphics/SVG/1.1/DTD/svg11.dtd">
<!-- Creator: CorelDRAW X7 -->
<svg xmlns="http://www.w3.org/2000/svg" xml:space="preserve" width="11.0066mm" height="6.7732mm" version="1.1" style="shape-rendering:geometricPrecision; text-rendering:geometricPrecision; image-rendering:optimizeQuality; fill-rule:evenodd; clip-rule:evenodd"
viewBox="0 0 1101 677"
 xmlns:xlink="http://www.w3.org/1999/xlink">
 <defs>
  <style type="text/css">
   <![CDATA[
    .fil0 {fill:#256D9B}
    .fil1 {fill:#EBA12C}
   ]]>
  </style>
 </defs>
 <g id="Capa_x0020_1">
  <metadata id="CorelCorpID_0Corel-Layer"/>
  <g id="_494432494784">
   <path class="fil0" d="M684 468c-4,15 16,47 -11,64 -13,9 -39,16 -54,1 -4,-5 -8,-14 -9,-22 -1,-12 1,-17 -5,-24 -16,-21 -44,-7 -44,13 0,18 3,36 11,50 4,8 16,24 25,27 -1,4 -4,6 -7,8 -18,11 -66,22 -66,-12l0 -447c0,-10 1,-22 3,-30 4,-15 7,-14 26,-14 34,0 68,16 84,43 8,14 6,22 25,26 7,2 11,3 18,6 10,4 12,4 23,3 16,0 32,1 48,1 2,0 3,0 5,-1 -1,-7 -21,-25 -27,-30 -14,-12 -30,-17 -44,-22 -8,-3 -7,-11 -18,-23 -2,-3 -3,-4 -6,-7 -3,-4 -3,-3 -7,-6 -5,-5 -8,-8 -15,-12 -18,-12 -48,-23 -77,-26l-24 0c-7,1 -14,2 -20,4 -9,3 -11,6 -17,10 -20,-13 -27,-14 -48,-14l-8 0c-37,0 -83,20 -104,43 -6,7 -13,14 -18,23 -5,9 -5,7 -16,11 -27,9 -38,21 -54,38 -3,4 -4,4 -7,8 -16,25 -26,50 -26,82 0,34 3,58 15,88 6,15 3,3 -7,29 -16,40 -9,84 21,115 6,5 12,10 18,14l-1 23c0,24 14,47 27,58 17,12 40,24 62,24 2,6 10,17 14,21 18,18 46,30 73,32l18 0c8,0 16,-2 23,-5 7,-3 12,-8 18,-11 21,14 24,16 52,16 30,0 59,-12 78,-31 4,-4 13,-16 15,-22 11,0 26,-5 35,-8 28,-10 54,-39 54,-74l-1 -23c18,-10 34,-31 42,-50 0,-2 1,-3 0,-5 -3,-2 -19,-1 -24,-1 -7,0 -13,0 -20,0 -1,0 -5,0 -6,1 -1,0 -9,8 -10,9 -9,8 -26,15 -31,25 -1,2 -1,3 -1,4zm-371 -59c0,25 34,23 51,45 28,37 11,54 29,67 16,12 37,1 37,-19 0,-11 -2,-19 -4,-28 -6,-26 -18,-43 -36,-61 -11,-11 -56,-44 -73,-17 -2,2 -4,10 -4,13zm23 -189c0,14 12,23 21,23l11 0c44,0 79,-32 85,-68 4,-23 -22,-36 -38,-23 0,1 -4,5 -5,6 -1,2 -2,5 -3,7 -17,47 -47,19 -64,39 -4,4 -7,9 -7,16zm-69 29c0,-43 18,-82 61,-95 5,-2 12,-2 17,-4 12,-5 13,-14 19,-24 18,-32 53,-44 93,-44 13,0 15,4 17,14 2,8 3,20 3,30l0 447c0,36 -56,22 -70,8 -15,-13 -9,-26 -22,-34 -13,-8 -24,-1 -46,-9 -42,-15 -18,-55 -21,-69 -1,-5 -4,-9 -7,-12 -10,-11 -44,-15 -44,-61 0,-34 31,-63 69,-63 8,0 17,0 25,2 9,1 13,4 23,4 11,0 23,-10 23,-22 0,-17 -9,-23 -27,-27 -31,-8 -77,-7 -103,11 -5,-11 -10,-36 -10,-52z"/>
   <path class="fil1" d="M620 228l0 117 -47 53c27,0 54,0 82,0 13,0 26,0 40,0 13,0 27,0 40,0 20,0 41,0 61,0 27,0 22,0 48,0 3,0 4,0 7,-1l14 0c9,0 16,-7 16,-16l0 -173c0,-9 -7,-17 -16,-17l-228 0c-9,0 -17,8 -17,17l0 20zm45 17l173 0 0 24 -173 0 0 -24zm0 50l96 0 0 24 -96 0 0 -24z"/>
  </g>
 </g>
</svg>
