<?xml version="1.0" encoding="UTF-8"?>
<!DOCTYPE svg PUBLIC "-//W3C//DTD SVG 1.1//EN" "http://www.w3.org/Graphics/SVG/1.1/DTD/svg11.dtd">
<!-- Creator: CorelDRAW X7 -->
<svg xmlns="http://www.w3.org/2000/svg" xml:space="preserve" width="11.0066mm" height="6.7732mm" version="1.1" style="shape-rendering:geometricPrecision; text-rendering:geometricPrecision; image-rendering:optimizeQuality; fill-rule:evenodd; clip-rule:evenodd"
viewBox="0 0 1101 677"
 xmlns:xlink="http://www.w3.org/1999/xlink">
 <defs>
  <style type="text/css">
   <![CDATA[
    .fil2 {fill:#256D9B}
    .fil0 {fill:#EBA12C}
    .fil1 {fill:#256D9B;fill-rule:nonzero}
   ]]>
  </style>
 </defs>
 <g id="Capa_x0020_1">
  <metadata id="CorelCorpID_0Corel-Layer"/>
  <path class="fil0" d="M741 84c101,0 183,82 183,183 0,101 -82,183 -183,183 -28,0 -54,-6 -78,-17 14,-30 21,-63 21,-97 0,-74 -34,-139 -87,-181 33,-43 85,-71 144,-71zm-44 280c-2,5 -6,9 -10,11 2,-13 4,-26 4,-40 0,-9 -1,-18 -2,-27 1,-1 2,-1 2,-2 15,-10 33,-15 52,-15 18,0 36,5 51,15 15,10 27,24 34,41 5,11 0,24 -11,29 -2,0 -3,1 -5,1l-7 0c-7,-1 -13,-5 -17,-13 -4,-9 -10,-16 -18,-21 -8,-5 -17,-8 -27,-8 -11,0 -20,3 -28,8 -8,5 -14,12 -18,21zm100 -189c17,0 31,14 31,31 0,17 -14,31 -31,31 -17,0 -31,-14 -31,-31 0,-17 14,-31 31,-31zm-111 0c17,0 31,14 31,31 0,17 -14,31 -31,31 -18,0 -32,-14 -32,-31 0,-17 14,-31 32,-31z"/>
  <path class="fil1" d="M455 74c68,4 129,32 174,77 47,48 77,114 77,187 0,74 -30,140 -77,188 -48,48 -115,77 -188,77 -73,0 -139,-29 -187,-77 -48,-48 -78,-114 -78,-188 0,-73 30,-139 78,-187 45,-45 106,-73 173,-77l28 0zm138 112c-39,-38 -92,-62 -152,-62 -59,0 -113,24 -152,62 -39,39 -63,93 -63,152 0,60 24,114 63,152 39,39 93,63 152,63 60,0 113,-24 152,-63 39,-38 63,-92 63,-152 0,-59 -24,-113 -63,-152z"/>
  <path class="fil1" d="M544 348c0,-12 9,-22 21,-24l8 0c12,2 21,12 21,24 0,43 -17,81 -45,108 -27,28 -66,45 -108,45 -42,0 -80,-17 -108,-45 -27,-27 -44,-65 -44,-108 0,-12 9,-22 20,-24l8 0c12,2 21,12 21,24 0,29 12,55 30,73 19,19 45,30 73,30 29,0 54,-11 73,-30 19,-18 30,-44 30,-73z"/>
  <g id="_494873280432">
   <circle class="fil2" cx="368" cy="249" r="41"/>
   <circle class="fil2" cx="515" cy="249" r="41"/>
  </g>
 </g>
</svg>
