<?xml version="1.0" encoding="UTF-8"?>
<!DOCTYPE svg PUBLIC "-//W3C//DTD SVG 1.1//EN" "http://www.w3.org/Graphics/SVG/1.1/DTD/svg11.dtd">
<!-- Creator: CorelDRAW X7 -->
<svg xmlns="http://www.w3.org/2000/svg" xml:space="preserve" width="11.0066mm" height="6.7732mm" version="1.1" style="shape-rendering:geometricPrecision; text-rendering:geometricPrecision; image-rendering:optimizeQuality; fill-rule:evenodd; clip-rule:evenodd"
viewBox="0 0 1101 677"
 xmlns:xlink="http://www.w3.org/1999/xlink">
 <defs>
  <style type="text/css">
   <![CDATA[
    .fil0 {fill:#256D9B}
    .fil1 {fill:#EBA12C}
   ]]>
  </style>
 </defs>
 <g id="Capa_x0020_1">
  <metadata id="CorelCorpID_0Corel-Layer"/>
  <g id="_494240748992">
   <path class="fil0" d="M744 594l-387 0 0 -428 39 0 4 0 -2 -3c-1,-3 -1,-6 -2,-9 0,-3 -1,-6 -1,-9 0,-4 1,-9 2,-13 1,-4 3,-8 5,-12l1 -3 -63 0c-3,0 -7,2 -10,3 -4,2 -8,5 -11,8 -3,3 -6,7 -8,12 -2,4 -3,9 -3,14l0 452c0,10 4,19 11,26 3,4 8,6 12,8 4,2 9,3 14,3l410 0c11,0 20,-4 27,-11 3,-3 6,-7 8,-12 2,-4 3,-9 3,-14l0 -452c0,-10 -5,-20 -11,-26 -3,-3 -7,-6 -11,-8 -3,-1 -7,-3 -11,-3l-62 0 2 3c2,4 3,8 5,12 1,4 1,9 1,13 0,3 0,6 -1,9 0,3 -1,6 -2,9l-1 3 3 0 39 0 0 428zm-284 -405l181 0c24,0 43,-23 43,-46 0,-24 -19,-45 -43,-45l-32 0 0 -6c0,-32 -26,-58 -58,-58 -32,0 -58,26 -58,58l0 6 -33 0c-23,0 -43,21 -43,45 0,23 20,46 43,46zm111 -100c0,12 -9,21 -20,21 -11,0 -20,-9 -20,-21 0,-11 9,-21 20,-21 11,0 20,10 20,21z"/>
   <path class="fil1" d="M533 503l160 -186c6,-7 9,-15 8,-24 -1,-9 -5,-17 -11,-22l-8 -7c-13,-11 -33,-10 -45,3l-135 149 -40 -35c-13,-12 -33,-10 -45,3l-7 8c-6,6 -9,14 -9,23 1,8 5,17 11,22l74 68c7,6 15,10 24,9 9,0 17,-4 23,-11z"/>
  </g>
 </g>
</svg>
