<?xml version="1.0" encoding="UTF-8"?>
<!DOCTYPE svg PUBLIC "-//W3C//DTD SVG 1.1//EN" "http://www.w3.org/Graphics/SVG/1.1/DTD/svg11.dtd">
<!-- Creator: CorelDRAW X7 -->
<svg xmlns="http://www.w3.org/2000/svg" xml:space="preserve" width="11.0066mm" height="6.7732mm" version="1.1" style="shape-rendering:geometricPrecision; text-rendering:geometricPrecision; image-rendering:optimizeQuality; fill-rule:evenodd; clip-rule:evenodd"
viewBox="0 0 1101 677"
 xmlns:xlink="http://www.w3.org/1999/xlink">
 <defs>
  <style type="text/css">
   <![CDATA[
    .fil1 {fill:#EBA12C}
    .fil0 {fill:#256D9B;fill-rule:nonzero}
   ]]>
  </style>
 </defs>
 <g id="Capa_x0020_1">
  <metadata id="CorelCorpID_0Corel-Layer"/>
  <g id="_494441680960">
   <path class="fil0" d="M471 203c-1,3 -2,5 -4,7l0 0c0,4 1,9 2,14l1 1 0 1c0,2 1,3 1,4l0 0c0,1 0,1 0,1l0 0c2,2 4,5 6,8 1,2 2,5 2,8l0 0c3,22 14,43 29,59 13,15 28,25 41,25 15,0 31,-10 45,-24 16,-17 27,-39 31,-61l0 0c1,-3 2,-5 3,-8 1,-2 2,-4 4,-7l1 0 0 0 0 0c0,0 0,0 0,0l0 0c0,-1 1,-2 1,-3l0 -2 0 0c2,-7 3,-12 3,-16 0,0 0,0 0,0l1 0 0 0 -1 -1c-2,-3 -3,-7 -4,-11 -1,-4 0,-8 1,-12l0 0c3,-12 6,-29 4,-45 -2,-10 -5,-20 -12,-28l-1 0c0,-2 -3,-5 -9,-9 -6,-4 -15,-10 -27,-13l-1 0 -16 -6 0 0c-8,-2 -15,-4 -20,-5 -7,-2 -11,-3 -13,-3l-2 0 0 0c-2,0 -3,1 -3,1l0 0 -2 0 -11 1c-3,2 -13,6 -23,14 -10,8 -21,20 -26,35l0 1c-1,1 -2,4 -2,13 -1,9 0,24 3,45l0 0c1,5 1,11 -2,16zm112 162l0 29c0,4 -3,8 -8,8l26 136 -49 37 -49 -37 27 -136c-4,0 -8,-4 -8,-8l0 -27c-4,-1 -8,-3 -12,-5 -8,-4 -16,-8 -23,-14 -2,1 -3,3 -4,3l0 0c-10,7 -23,14 -35,19 -19,8 -37,14 -48,18 -7,2 -12,6 -16,9 -2,2 -4,3 -5,4 -9,15 -16,36 -22,58 -10,47 -12,96 -12,97l0 0c0,2 0,3 0,5 36,14 80,24 118,29 38,6 69,9 78,9l0 0 3 0c8,0 16,0 22,0 8,-1 15,-1 23,-2l0 0c24,-3 61,-7 99,-16 23,-5 46,-12 67,-20 0,-2 0,-4 0,-6 0,-6 -2,-34 -7,-67 -5,-31 -13,-66 -27,-88 -2,-1 -8,-8 -22,-13l-3 0 -1 -1 -1 0c-20,-10 -38,-16 -40,-16l0 0 -1 0c-2,-1 -4,-2 -7,-3 -2,-1 -4,-2 -7,-3l-1 0c-4,-2 -6,-4 -7,-4l0 0c-2,-1 -4,-2 -6,-4l-1 0 -1 -1 -10 -6c-8,6 -17,11 -25,14 -2,1 -3,1 -5,2zm-63 -327l31 0 0 0c3,1 6,1 10,2 6,2 14,4 23,7l1 0 16 5 0 0c18,6 31,13 39,20 10,7 16,14 17,16l0 0c13,14 19,31 21,48 2,21 -1,41 -4,55 2,5 4,13 3,22 0,6 -1,13 -4,23 -1,4 -2,8 -3,11l0 0c-2,4 -4,7 -6,9 -4,21 -13,42 -26,61 0,0 0,0 1,0l0 0 4 2 25 13c5,1 22,7 42,16l2 1 2 1c24,9 36,23 38,25l1 1 0 1c19,27 29,69 35,105 6,35 7,66 8,72l0 1c-1,8 -2,15 -3,19 -3,12 -10,18 -13,19l-1 1 -2 1c-24,11 -53,19 -81,26 -39,8 -78,13 -103,16l-1 0c-8,1 -16,1 -24,2 -8,0 -16,0 -24,0l-3 0 -2 0c-7,0 -41,-2 -82,-9 -43,-6 -94,-17 -134,-35l0 0c-4,-2 -12,-8 -16,-20 -1,-5 -2,-11 -2,-19l0 0c0,-1 1,-54 13,-106 6,-26 15,-53 28,-72l1 -1 0 -1c2,-1 6,-6 12,-11 6,-5 15,-11 27,-15l1 0c9,-3 27,-9 45,-17 10,-4 21,-10 28,-15l0 0 1 -1 2 -2c-11,-18 -20,-38 -23,-59 -3,-3 -4,-6 -6,-10l0 0c-2,-4 -3,-8 -4,-13 -2,-8 -3,-15 -3,-21 -1,-9 1,-17 5,-23l1 -1c-3,-21 -4,-37 -3,-48 0,-13 2,-21 3,-24l0 0c8,-25 25,-43 40,-55 15,-11 29,-18 34,-20l1 0c1,0 3,-1 6,-2 1,0 3,-1 5,-1l0 0 1 0zm119 174l-1 -2 -1 0c1,1 3,3 2,2l0 0zm-6 19c0,0 0,0 0,0l0 0z"/>
   <path class="fil1" d="M734 191l0 0c2,-2 4,-5 3,-7 -5,-33 -2,-47 -1,-51 10,-29 40,-43 46,-45 1,-1 4,-2 6,-2l1 0 5 0 0 0 1 0c1,0 2,0 3,-1l1 0c1,0 13,2 30,7l13 4c22,7 32,19 34,21 18,21 13,51 9,67 -1,2 -1,4 1,6l1 1c1,2 2,9 -2,23 -1,4 -2,8 -5,10 -1,1 -1,3 -1,4 -6,35 -38,75 -71,75 -29,0 -61,-36 -67,-75 0,-1 -1,-3 -2,-4 -2,-2 -3,-6 -4,-11 -3,-10 -4,-18 -1,-22z"/>
   <path class="fil1" d="M748 338l-3 0c-5,-3 -11,-5 -16,-8 8,-3 14,-7 19,-10 0,-1 1,-2 2,-2 1,-2 4,-5 6,-7l2 -2 1 2c15,14 31,22 46,22 15,0 31,-7 46,-20l1 -1 3 1c2,3 7,7 9,8l3 1 0 0 1 1c3,2 6,4 9,5 4,2 7,3 10,4 0,0 15,5 31,13l3 1c15,6 22,14 23,15 24,38 28,120 28,129 0,12 -3,15 -4,16 -46,21 -112,29 -140,32 -2,-37 -11,-126 -41,-172l-1 -1c-6,-8 -19,-19 -38,-27z"/>
   <path class="fil1" d="M370 191l-1 0c-2,-2 -3,-5 -3,-7 6,-33 2,-47 1,-51 -10,-29 -40,-43 -46,-45 -1,-1 -4,-2 -6,-2l-1 0 -4 -1 0 1 -2 0c-1,0 -2,-1 -3,-1l-1 0c-1,0 -13,2 -30,7l-12 4c-23,7 -33,19 -35,21 -18,21 -13,51 -8,67 0,2 0,4 -1,6l-1 1c-2,2 -3,9 1,23 1,4 2,8 5,10 1,1 1,3 2,4 6,35 37,75 71,75 28,0 60,-37 66,-75 0,-1 1,-3 2,-4 2,-2 4,-6 5,-11 2,-10 3,-18 1,-22z"/>
   <path class="fil1" d="M353 338l3 0c5,-3 10,-5 16,-8 -8,-3 -14,-7 -19,-10 -1,-1 -1,-2 -2,-2 -2,-2 -4,-5 -7,-7l-1 -2 -1 2c-15,14 -31,22 -46,22 -15,0 -31,-7 -46,-20l-1 -1 -3 1c-3,3 -8,6 -10,8l-2 1 0 0 -2 1c-2,2 -5,4 -9,5 -3,2 -6,3 -9,4 -1,0 -15,5 -32,13l-3 1c-15,6 -21,14 -22,15 -24,38 -28,119 -29,129 1,12 4,15 5,16 46,21 112,29 139,32 3,-38 12,-126 41,-172l2 -1c6,-8 19,-19 38,-27z"/>
  </g>
 </g>
</svg>
