<?xml version="1.0" encoding="UTF-8"?>
<!DOCTYPE svg PUBLIC "-//W3C//DTD SVG 1.1//EN" "http://www.w3.org/Graphics/SVG/1.1/DTD/svg11.dtd">
<!-- Creator: CorelDRAW X7 -->
<svg xmlns="http://www.w3.org/2000/svg" xml:space="preserve" width="11.0066mm" height="6.7732mm" version="1.1" style="shape-rendering:geometricPrecision; text-rendering:geometricPrecision; image-rendering:optimizeQuality; fill-rule:evenodd; clip-rule:evenodd"
viewBox="0 0 1101 677"
 xmlns:xlink="http://www.w3.org/1999/xlink">
 <defs>
  <style type="text/css">
   <![CDATA[
    .fil0 {fill:#256D9B}
    .fil1 {fill:#EBA12C}
    .fil2 {fill:#256D9B;fill-rule:nonzero}
   ]]>
  </style>
 </defs>
 <g id="Capa_x0020_1">
  <metadata id="CorelCorpID_0Corel-Layer"/>
  <g id="_494873319888">
   <path class="fil0" d="M455 190c-45,7 -76,50 -69,94 7,40 45,76 94,69 40,-7 76,-45 69,-94 -7,-41 -45,-76 -94,-69z"/>
   <path class="fil1" d="M705 294c46,0 93,0 140,0 5,0 20,-1 23,1 4,3 3,15 3,21 0,3 0,7 0,10 -51,42 -101,83 -152,124 -12,11 -25,21 -38,32 -2,1 -4,3 -6,4 -8,-5 -15,-11 -22,-17l-10 -9c9,-14 18,-28 25,-43 21,-40 35,-82 37,-123z"/>
   <path class="fil1" d="M627 484l4 4c4,3 43,36 44,36 1,0 35,-29 38,-32 13,-10 25,-20 37,-31 2,-1 3,-2 6,-3 6,4 15,15 20,21 29,31 58,62 86,93 2,1 3,3 5,5 -8,1 -17,0 -24,0 -92,0 -202,0 -296,0 27,-27 55,-59 80,-93z"/>
   <path class="fil1" d="M871 359c-31,27 -62,53 -93,80 -3,3 -1,2 3,6 20,22 40,45 60,67l1 1c3,4 25,28 27,29 2,1 2,-1 2,-2 0,-5 0,-13 0,-18 0,-54 0,-109 0,-163z"/>
   <path class="fil2" d="M476 644l-7 0c-3,0 -6,0 -9,-1l0 0c-5,-2 -9,-4 -12,-7 -59,-55 -133,-134 -177,-221 -33,-62 -50,-127 -37,-190 3,-14 7,-27 13,-40l0 0c5,-12 12,-24 19,-36l0 0c21,-34 48,-61 79,-80 39,-24 83,-36 127,-36 44,0 89,12 127,36 31,19 59,45 80,80l0 0c7,12 14,24 19,36 5,13 10,26 13,40 13,63 -4,128 -37,190 -45,87 -118,166 -177,221 -3,3 -8,5 -12,7l0 0c-3,1 -6,1 -9,1zm-3 -564l0 0 -1 0 0 0 0 0c-23,0 -44,3 -64,10 -21,7 -40,18 -56,31 -18,14 -33,30 -45,48 -12,19 -20,39 -26,60 -11,49 3,107 31,162l0 0c35,73 92,141 138,180l0 0 5 5c9,7 13,11 17,11 5,0 9,-4 18,-11l5 -5 0 0c45,-39 103,-107 138,-180l0 0c27,-55 42,-113 30,-162 -5,-21 -14,-41 -25,-60 -12,-18 -27,-34 -45,-48 -16,-13 -35,-24 -56,-31 -20,-7 -41,-10 -64,-10z"/>
  </g>
 </g>
</svg>
