<?xml version="1.0" encoding="UTF-8"?>
<!DOCTYPE svg PUBLIC "-//W3C//DTD SVG 1.1//EN" "http://www.w3.org/Graphics/SVG/1.1/DTD/svg11.dtd">
<!-- Creator: CorelDRAW X7 -->
<svg xmlns="http://www.w3.org/2000/svg" xml:space="preserve" width="11.0066mm" height="6.7732mm" version="1.1" style="shape-rendering:geometricPrecision; text-rendering:geometricPrecision; image-rendering:optimizeQuality; fill-rule:evenodd; clip-rule:evenodd"
viewBox="0 0 1101 677"
 xmlns:xlink="http://www.w3.org/1999/xlink">
 <defs>
  <style type="text/css">
   <![CDATA[
    .fil0 {fill:#256D9B}
    .fil1 {fill:#EBA12C}
   ]]>
  </style>
 </defs>
 <g id="Capa_x0020_1">
  <metadata id="CorelCorpID_0Corel-Layer"/>
  <g id="_494432489440">
   <path class="fil0" d="M759 400l0 0zm-356 -148c37,-37 90,-61 147,-61 58,0 110,24 148,61 38,38 61,90 61,148 0,58 -23,110 -61,148 -38,38 -90,61 -148,61 -57,0 -110,-23 -147,-61 -38,-38 -62,-90 -62,-148 0,-58 24,-110 62,-148zm354 -88l0 0zm-53 -46l0 0zm-111 -5l0 0zm39 -12l0 0zm0 -78l0 0zm-163 78l0 0zm-86 23l0 0zm-42 29l0 0zm-3 6l0 0zm1 7l0 0zm359 -44l0 0zm-33 47l-6 -3c-10,-5 -22,-9 -33,-13 -11,-3 -23,-6 -35,-8l-6 -1 0 -6 0 -6c0,-7 3,-14 8,-19 5,-5 12,-8 19,-8l11 0c3,0 7,-2 9,-4 2,-2 4,-5 4,-9l0 -60c0,-4 -2,-7 -4,-9 -2,-2 -6,-4 -9,-4l-145 0c-4,0 -7,2 -9,4 -2,2 -4,5 -4,9l0 60c0,4 2,7 4,9 2,2 5,4 9,4l11 0c7,0 14,3 19,8 5,5 8,12 8,19l0 6 0 6 -6 1c-13,2 -26,5 -38,9 -12,4 -24,9 -35,15l-6 2 -3 -5 -30 -41 0 -1c-2,-2 -4,-3 -6,-3 -2,-1 -5,0 -7,1l-2 2 -42 29c-2,2 -3,4 -3,6 -1,3 0,5 1,7l30 42 4 5 -5 5c-24,23 -43,52 -56,83 -13,31 -20,64 -20,99 0,71 29,136 76,182 47,47 111,76 182,76 71,0 136,-29 183,-76 46,-46 75,-111 75,-182 0,-36 -7,-70 -20,-101 -14,-32 -34,-61 -59,-85l-5 -4 4 -5 29 -41c1,-3 2,-5 2,-7 -1,-3 -2,-5 -4,-6l-44 -31c-2,-2 -5,-2 -7,-2 -2,1 -4,2 -6,4l-30 42 -3 5z"/>
   <path class="fil1" d="M698 328l-119 19c-22,-15 -51,-11 -68,9 -18,21 -16,54 5,72 22,18 54,16 72,-6 4,-4 7,-9 9,-15 1,0 2,0 3,-1l109 -42c31,-9 26,-44 -11,-36z"/>
  </g>
 </g>
</svg>
