<?xml version="1.0" encoding="UTF-8"?>
<!DOCTYPE svg PUBLIC "-//W3C//DTD SVG 1.1//EN" "http://www.w3.org/Graphics/SVG/1.1/DTD/svg11.dtd">
<!-- Creator: CorelDRAW X7 -->
<svg xmlns="http://www.w3.org/2000/svg" xml:space="preserve" width="11.0066mm" height="6.7732mm" version="1.1" style="shape-rendering:geometricPrecision; text-rendering:geometricPrecision; image-rendering:optimizeQuality; fill-rule:evenodd; clip-rule:evenodd"
viewBox="0 0 1101 677"
 xmlns:xlink="http://www.w3.org/1999/xlink">
 <defs>
  <style type="text/css">
   <![CDATA[
    .fil0 {fill:#EBA12C}
    .fil1 {fill:#256D9B;fill-rule:nonzero}
   ]]>
  </style>
 </defs>
 <g id="Capa_x0020_1">
  <metadata id="CorelCorpID_0Corel-Layer"/>
  <g id="_494432522976">
   <path class="fil0" d="M603 157l0 119 0 143 0 4c0,9 -7,16 -16,16l-52 0c-9,0 -16,-7 -16,-16l0 -4 0 -105 0 -2 0 -1c0,-25 -1,-40 -2,-45 -1,-5 -5,-9 -10,-12 -6,-2 -18,-4 -38,-4l-8 0 0 -39c41,-9 71,-26 92,-54l50 0z"/>
   <path class="fil1" d="M757 573c1,5 0,10 -1,13l0 0c-1,3 -2,4 -3,6 -1,2 -3,4 -4,5 -2,1 -4,3 -6,4 -2,0 -4,1 -6,1l0 0c-4,1 -7,1 -11,-1l0 0c-4,-1 -8,-3 -11,-6l-1 0 0 0 0 -1c-1,-1 -2,-2 -3,-4 -1,-1 -2,-3 -3,-5l0 0c-1,-2 -2,-4 -3,-6 -1,-2 -2,-5 -3,-7 -1,-2 -2,-5 -3,-7l0 0c0,-3 -1,-5 -2,-7l0 0 0 -1c-1,-2 -2,-5 -2,-7l0 0c-1,-3 -2,-5 -2,-6l0 0 0 -1 0 0 0 0c-17,-76 7,-117 33,-160l0 0 0 -1 0 0 0 0c5,-7 9,-15 14,-23l0 0c4,-8 8,-16 11,-25l0 0c4,-8 6,-18 8,-28 2,-11 3,-22 3,-34 0,-17 -2,-32 -5,-46 -3,-15 -8,-29 -15,-42 -6,-14 -14,-26 -23,-37 -10,-11 -20,-21 -32,-30 -6,-5 -13,-10 -21,-14 -7,-4 -14,-8 -22,-11l0 0c-8,-3 -16,-6 -24,-8 -9,-3 -17,-5 -25,-6 -9,-1 -17,-2 -26,-3 -8,0 -17,0 -26,1 -8,0 -16,2 -25,3 -8,2 -16,4 -24,7l-3 1 0 0c-10,4 -19,8 -28,13 -10,5 -20,12 -28,19 -9,7 -17,15 -24,24 -7,8 -14,18 -20,28 -3,7 -7,14 -11,23 -3,8 -6,17 -9,26 -2,8 -4,16 -6,25 -7,45 8,27 15,53 2,17 -12,36 -24,52 -3,4 -6,9 -9,13 -2,3 -3,6 -4,8 -3,6 -3,11 -1,16 1,4 4,7 7,9 2,1 3,2 4,2 12,5 12,19 13,36 0,6 0,13 1,20 1,12 6,24 10,36 4,9 7,18 8,25 3,28 25,30 46,27 6,0 12,-1 17,-2 2,-1 5,-1 7,-1 16,-3 28,-1 38,4 9,5 17,15 24,27 1,3 3,7 5,10 2,4 4,7 6,10 1,4 3,8 5,11 2,4 3,7 4,9l0 0c2,3 3,5 4,7 0,2 0,3 1,3l0 2c2,5 2,9 1,13 -1,5 -3,8 -5,11l0 0c-2,2 -3,3 -5,4 -1,1 -3,2 -5,3l-1 0c-1,0 -2,0 -2,0 -2,1 -3,1 -4,1l0 0 -2 0 0 0 -1 0 -2 0c-1,0 -1,-1 -2,-1 -1,0 -2,0 -3,0l0 0c-3,-2 -7,-4 -10,-7 -4,-4 -7,-7 -9,-11 -5,-11 -11,-21 -16,-31l-6 -12c-3,-5 -20,-2 -30,0 -2,1 -4,1 -5,1l0 0c-75,9 -88,-30 -92,-56 0,-5 0,-9 -1,-12l0 0c0,-5 0,-9 -1,-10l0 0c-11,-16 -11,-26 -11,-32 0,-3 1,-5 -1,-6 -12,-13 -11,-20 -10,-32 0,-2 1,-4 1,-6l0 -2 -1 0c-12,-7 -21,-14 -26,-23 -6,-9 -7,-20 -5,-34l0 0c3,-15 16,-35 24,-49l0 0 4 -5 0 0 0 -1 0 0 0 0 0 0 0 -1 0 0c2,-3 4,-5 5,-7 2,-2 3,-4 4,-6l1 -1 -1 -2c-1,-1 -2,-2 -3,-4l0 0c-1,-2 -2,-4 -4,-7 -3,-5 -4,-11 -5,-18 -1,-8 -1,-17 -1,-26 1,-10 3,-20 5,-30 3,-12 6,-24 9,-33l0 0 0 0c7,-19 15,-36 24,-52 10,-16 22,-31 34,-43 14,-14 28,-25 43,-35 16,-10 33,-17 51,-23 10,-4 20,-6 30,-8 10,-2 21,-4 31,-5 11,-1 21,-1 32,0 11,0 21,1 32,3 10,2 21,4 31,7 10,3 20,6 30,10l0 0c10,4 19,9 28,14 9,6 18,11 26,18 15,11 29,24 41,38 11,14 22,30 30,47 8,16 14,33 18,52 4,18 7,38 7,58 1,64 -22,102 -44,138l0 1 0 0 0 0 0 0 0 0c-10,17 -20,33 -25,52 -6,19 -8,41 -2,68l0 0 1 2c0,1 0,3 1,5 1,3 12,33 12,36z"/>
  </g>
 </g>
</svg>
