<?xml version="1.0" encoding="UTF-8"?>
<!DOCTYPE svg PUBLIC "-//W3C//DTD SVG 1.1//EN" "http://www.w3.org/Graphics/SVG/1.1/DTD/svg11.dtd">
<!-- Creator: CorelDRAW X7 -->
<svg xmlns="http://www.w3.org/2000/svg" xml:space="preserve" width="11.0066mm" height="6.7732mm" version="1.1" style="shape-rendering:geometricPrecision; text-rendering:geometricPrecision; image-rendering:optimizeQuality; fill-rule:evenodd; clip-rule:evenodd"
viewBox="0 0 1101 677"
 xmlns:xlink="http://www.w3.org/1999/xlink">
 <defs>
  <style type="text/css">
   <![CDATA[
    .fil1 {fill:#256D9B}
    .fil0 {fill:#EBA12C}
   ]]>
  </style>
 </defs>
 <g id="Capa_x0020_1">
  <metadata id="CorelCorpID_0Corel-Layer"/>
  <g id="_494873315728">
   <path class="fil0" d="M499 378c23,14 59,43 72,54 15,12 27,8 25,-4 -2,-18 -10,-38 -8,-48 12,-3 24,-6 34,-11l3 -2 0 0c38,-19 62,-51 62,-87 0,-59 -62,-106 -139,-106 -77,0 -139,47 -139,106 0,45 38,83 90,98zm111 -118c11,0 20,9 20,20 0,11 -9,21 -20,21 -11,0 -20,-10 -20,-21 0,-11 9,-20 20,-20zm-62 0c11,0 20,9 20,20 0,11 -9,21 -20,21 -11,0 -20,-10 -20,-21 0,-11 9,-20 20,-20zm-64 0c12,0 21,9 21,20 0,11 -9,21 -21,21 -11,0 -20,-10 -20,-21 0,-11 9,-20 20,-20z"/>
   <path class="fil1" d="M793 474l0 -319c0,-20 -24,-23 -27,-23l-434 0c-3,0 -26,3 -26,23l-1 0 3 319 485 0zm-598 89c0,30 32,30 32,30l646 0c0,0 32,0 32,-30 0,-6 -1,-11 -3,-15l0 0c-2,-3 -4,-5 -6,-7l-56 -67 0 -318c0,-71 -71,-71 -71,-71l-440 0c0,0 -70,0 -70,71l0 318 -55 68c-5,4 -9,11 -9,21zm284 -32l0 0 0 0 0 0 1 -1 0 -1 0 0 0 0 1 0 0 0 0 0 0 -1 0 0 0 0 0 0 1 -1 0 0 0 0 0 0 0 0 0 0 0 -1 0 0 1 0 0 -1 0 0 0 0 0 0 1 -1 0 0 1 -1 0 0 0 0 0 0 0 0 1 -1c0,0 0,0 0,0l1 0 0 -1 0 0 1 0 0 0 0 0 1 -1c0,0 0,0 1,0l1 0 1 0 0 -1 1 0 1 0 0 0 0 0 1 0 1 0 1 0 1 0 1 0 0 0 1 0 0 0 1 0 1 0 1 0 0 0 1 0 1 0 0 0 1 0 1 0 1 0 1 0 0 0 1 0 1 0 1 0 0 0 1 0 1 0 1 0 0 0 1 0 1 0 0 0 1 0 0 0 1 0 1 0 0 0 1 0 1 0 1 0 0 0 1 0 3 0 5 0 14 0 3 0 14 0 5 0 3 0 1 0 0 0 1 0 1 0 1 0 0 0 1 0 1 0 0 0 1 0 0 0 2 0 0 0 0 0 1 0 1 0 1 0 1 0 1 0 1 0 0 0 1 0 0 0 1 0 0 0 1 0 1 0 0 0 1 0 1 0 0 0 1 0 1 0c2,0 4,0 5,0l1 0 1 0 0 0 1 0 1 0c1,1 3,1 4,1l0 1 0 0 1 0 0 0 0 0 0 1c1,0 1,0 2,0l0 1 0 0 0 0 0 0 1 0 0 1 1 0 0 1 0 0 0 0 0 0 0 1 1 0 0 0 0 1 0 0 0 0 0 0 0 0 1 0 0 1 0 0 0 0 0 0 0 1 0 0 0 0 1 0 0 0 0 0 0 1 1 1 0 0 0 0 0 0c2,3 4,6 5,9 7,11 10,18 -7,19l0 0 0 0 -1 1 0 0 0 0 0 0 0 0 0 0 -1 0 0 0 0 0 0 0 0 0 0 0 -1 0 0 0 -1 0 0 0 -1 0 0 0 0 0 0 0 -1 0 0 0 -1 0 0 0 0 0 0 0 0 0 -3 0 -1 0 -3 0 -2 0 -4 0 -2 0 -1 0 0 0 -2 0 -1 0 -1 0 -1 0 -1 0 -1 0 -2 0 -2 0 -2 0 -6 0 -4 0 -2 0 -3 0 -2 0 -2 0 -2 0 -2 0 -3 0 -1 0 -3 0 -1 0 -3 0 -1 0 -3 0 -2 0 -2 0 -2 0 -2 0 -3 0 -1 0 -5 0 -6 0 -2 0 -2 0 -2 0 -1 0 -1 0 -1 0 -1 0 -1 0 -1 0 -1 0 -1 0 -2 0 -4 0 -2 0 0 0 -1 0 -1 0 -1 0 -1 0 -3 0 -2 0 0 0 -2 0 0 0 -1 0 -1 0 -2 -1 0 0 0 0c-1,0 -2,0 -2,0l-1 0 0 0 -1 0c-1,0 -1,-1 -2,-1l-1 0 0 0 0 0c-1,0 -1,-1 -1,-1l0 0 -1 0 0 0 0 0 -1 -1 0 0 0 0 0 0 0 0 -1 -1 0 0 0 0 0 0 0 0 0 0 0 0 0 -1 0 0 -1 -1 0 0 0 0 0 0 0 -1 0 0 0 -1 0 0 0 0c0,-1 1,-1 1,-1l0 -1 0 0 0 -1 0 0c1,-2 3,-5 5,-8 1,-3 3,-6 5,-9z"/>
  </g>
 </g>
</svg>
