<?xml version="1.0" encoding="UTF-8"?>
<!DOCTYPE svg PUBLIC "-//W3C//DTD SVG 1.1//EN" "http://www.w3.org/Graphics/SVG/1.1/DTD/svg11.dtd">
<!-- Creator: CorelDRAW X7 -->
<svg xmlns="http://www.w3.org/2000/svg" xml:space="preserve" width="11.0066mm" height="3.0478mm" version="1.1" style="shape-rendering:geometricPrecision; text-rendering:geometricPrecision; image-rendering:optimizeQuality; fill-rule:evenodd; clip-rule:evenodd"
viewBox="0 0 1101 305"
 xmlns:xlink="http://www.w3.org/1999/xlink">
 <defs>
  <style type="text/css">
   <![CDATA[
    .fil1 {fill:#2495D7}
    .fil2 {fill:#256D9B}
    .fil0 {fill:#61B5E3}
    .fil3 {fill:white}
   ]]>
  </style>
 </defs>
 <g id="Capa_x0020_1">
  <metadata id="CorelCorpID_0Corel-Layer"/>
  <g id="_800465997024">
   <path class="fil0" d="M227 103c-5,17 -20,35 -38,49l0 0 0 0 0 0 0 0 0 0 0 0 0 0 0 0 0 0 0 0 0 0 0 0 0 0 0 0 0 0 0 0 0 0 0 0 0 0 0 0 0 0 0 0 0 0 0 0 0 0 0 1 0 0 0 0 0 0 0 0 0 0 0 0c-1,0 -2,1 -2,1l0 0 0 0 0 0c0,0 0,0 -1,1l-1 1 0 0c-8,5 -16,10 -23,13 0,1 1,2 1,3 1,11 4,22 9,31 3,8 8,15 13,20 1,1 2,2 4,3 13,-6 26,-14 38,-24 18,-14 33,-31 45,-50 2,-2 3,-4 4,-6 10,-16 16,-32 17,-51 2,-34 -15,-67 -46,-84 -36,-21 -79,-15 -108,10 -8,8 -16,17 -22,27 5,0 9,1 14,2 6,0 13,2 20,3 5,2 10,3 15,5 5,1 10,3 15,5 3,1 5,2 7,3 15,-5 33,1 39,17 2,6 2,13 0,20z"/>
   <path class="fil1" d="M67 152c0,-10 5,-18 12,-23 4,-3 8,-5 13,-6 17,-5 39,-1 60,8 9,4 19,9 28,14 0,0 1,-1 2,-1l0 0c9,-7 17,-15 23,-24 5,-6 9,-14 11,-20 1,-2 1,-3 1,-5 -13,-8 -26,-16 -40,-21 -10,-4 -19,-7 -29,-10 -12,-2 -24,-4 -37,-5 -26,-1 -52,3 -73,19 -23,17 -37,44 -37,74 0,34 18,64 46,80 16,10 33,14 51,14 -4,-9 -7,-18 -10,-27 -3,-12 -6,-24 -7,-36 -1,-2 -1,-4 -1,-7 -8,-5 -13,-14 -13,-24z"/>
   <path class="fil2" d="M177 231c-13,-13 -22,-36 -25,-57 -2,-8 -2,-15 -2,-22 0,-3 0,-6 0,-10 -1,0 -2,-1 -3,-1 -10,-4 -20,-7 -29,-8 -9,-1 -17,-1 -23,1 -2,0 -3,1 -5,1 -1,15 0,31 2,47 3,22 9,44 19,64 10,20 24,37 41,47 28,17 65,19 95,1 36,-21 53,-63 44,-102 -3,-9 -7,-20 -12,-29 -6,8 -12,16 -19,24 -8,9 -17,17 -26,24 -2,2 -4,3 -6,5 -1,9 -6,17 -14,21 -15,7 -27,3 -37,-6z"/>
   <path class="fil3" d="M383 176l-25 5c0,2 1,5 1,7l0 0c0,2 1,4 2,7l0 0c0,2 1,4 2,6 1,2 3,4 4,6 1,1 3,3 5,4 1,2 3,3 6,4 2,1 4,2 7,2 2,1 5,1 8,1 4,0 8,-1 12,-2 4,-1 7,-3 10,-6l0 0c3,-3 5,-6 7,-9 1,-4 2,-8 2,-12 0,-2 0,-5 0,-7 -1,-2 -1,-4 -1,-6 -1,-2 -2,-4 -2,-6 -1,-1 -2,-3 -3,-5l0 0c-1,-2 -2,-3 -4,-5 -1,-1 -2,-3 -3,-4l0 0c-1,-2 -3,-3 -4,-4 -2,-2 -3,-3 -5,-5l0 0c-1,0 -1,-1 -2,-2 -1,0 -2,-1 -3,-2l0 0c-1,-1 -2,-2 -3,-3 -1,0 -2,-1 -2,-2l0 0c-1,0 -2,-1 -3,-2 0,-1 -1,-2 -2,-3l0 0c-1,-1 -2,-2 -2,-3 -1,-1 -1,-2 -2,-3 0,-1 0,-2 -1,-4 0,-1 0,-2 0,-4 0,-1 0,-2 1,-4 0,-1 0,-2 1,-3l0 0c1,-2 2,-2 3,-3 1,-1 2,-1 4,-1 1,0 1,0 2,0 1,1 1,1 2,2 1,0 1,1 2,1 0,1 0,2 1,2 0,1 0,2 0,3 0,0 1,1 1,2l0 0c0,1 0,2 0,2 0,1 0,2 0,3 0,0 0,1 0,1 0,1 0,1 0,2 0,0 0,1 0,1l0 0 25 -3 0 -2 0 0 0 -1c0,-4 -1,-8 -2,-12 -2,-3 -4,-7 -7,-10 -3,-3 -7,-5 -10,-7 -4,-1 -8,-2 -12,-2 -5,0 -10,0 -14,2 -5,1 -8,4 -11,6 -3,3 -6,7 -7,11 -2,4 -3,8 -3,13 0,2 0,3 1,5 0,2 0,3 0,5 1,1 1,3 2,4 0,1 1,2 1,3 1,2 1,3 2,4 1,1 2,2 3,3 1,1 2,2 3,3 1,1 1,2 2,3l0 0c1,0 2,1 3,2 1,1 2,2 3,3l0 0 8 7 0 0c5,4 8,8 11,13 2,4 4,8 4,13 0,3 -1,6 -2,7l0 0c-2,2 -4,3 -6,3 -1,0 -2,0 -3,-1 -1,0 -1,0 -2,-1 -1,0 -1,-1 -2,-2 0,0 0,-1 -1,-2l0 0c0,0 0,-1 -1,-2 0,-1 0,-2 0,-3l0 0c-1,-1 -1,-3 -1,-4 0,-1 0,-2 0,-3 0,-1 0,-2 0,-3 0,-1 0,-2 0,-3zm69 -1l0 41 24 0 0 -41 0 0 0 0 23 -83 -22 0c-1,3 -2,7 -3,11 -1,5 -2,10 -3,16l-3 10c-1,7 -3,13 -4,18l0 2 -1 -2 -11 -55 -23 0 23 83 0 0 0 0zm57 -83l0 124 20 0 0 -69 0 -2 1 2 27 69 17 0 0 -124 -20 0 0 65 0 2 -1 -2 -27 -65 -17 0zm80 41l0 42c0,2 1,4 1,7 0,2 0,4 1,6l0 0c0,2 0,4 1,6 1,2 1,4 2,6 1,2 2,4 3,5 1,2 2,3 4,5 1,1 3,2 4,3 2,1 4,2 6,3l0 0c2,0 4,1 6,1 3,1 5,1 8,1 3,0 5,0 7,-1 3,0 5,-1 7,-1l0 0c2,-1 4,-2 5,-3 2,-1 3,-2 5,-4 1,-1 2,-2 3,-4 1,-1 2,-3 3,-5l0 0c1,-2 1,-4 2,-6 0,-2 1,-4 1,-6 1,-1 1,-4 1,-6 0,-2 0,-4 0,-7l0 0 0 -10 -23 0 0 13c0,3 0,5 -1,7 0,1 0,3 0,4 0,1 -1,2 -1,3l0 0c0,1 -1,2 -1,3 -1,1 -1,2 -2,3l0 0c-1,0 -2,1 -3,1 -1,0 -2,1 -3,1 -4,0 -7,-2 -9,-5 -1,-3 -2,-8 -2,-14l0 -54c0,-6 1,-11 2,-14 2,-3 5,-5 9,-5 1,0 2,0 3,1 1,0 1,0 2,1 1,0 1,1 2,1 0,1 1,2 1,2 0,1 1,2 1,3 0,1 1,2 1,3l0 0c0,1 0,2 0,3 0,0 0,1 0,2 1,1 1,2 1,3 0,1 0,2 0,3l0 11 23 0 0 -10c0,-3 0,-5 0,-7 0,-2 0,-5 -1,-7l0 0c0,-2 -1,-4 -1,-5 -1,-2 -2,-4 -2,-6 -1,-2 -2,-3 -3,-5 -1,-1 -3,-2 -4,-4l0 0c-1,-1 -3,-2 -4,-3 -2,-1 -4,-1 -6,-2l0 0c-2,-1 -4,-1 -6,-2 -2,0 -4,0 -7,0 -12,0 -21,4 -27,11 -6,7 -9,18 -9,32zm84 -41l0 124 25 0 0 -55 0 -1 0 0 18 0 1 0 0 1 0 55 24 0 0 -124 -24 0 0 51 0 0 -1 0 -18 0 0 0 0 0 0 -51 -25 0zm117 52l-7 0 -1 0 0 0 0 -34 0 0 1 0 8 0c1,0 2,0 3,0 0,1 1,1 2,2 0,0 1,1 1,2 1,1 1,2 2,3l0 0c0,1 0,2 0,2 0,1 1,2 1,3l0 0c0,1 0,2 0,2 0,1 0,2 0,3 0,0 0,1 0,2 0,1 0,1 0,2l0 0c-1,1 -1,2 -1,3 0,1 0,2 -1,3 0,1 -1,2 -1,3 -1,1 -1,1 -2,2 -1,1 -1,1 -2,1 -1,1 -2,1 -3,1zm-32 -52l0 124 24 0 0 -57 0 -1 1 0 4 0 0 0 0 1 14 57 25 0c-2,-8 -5,-17 -8,-27 -4,-10 -7,-21 -11,-33l0 0 0 0c2,-1 3,-2 4,-3 2,0 3,-1 4,-2 1,-1 2,-2 3,-3 1,-1 1,-2 2,-3l0 0c0,-1 1,-2 1,-3 1,-1 1,-2 1,-4l0 0c1,-1 1,-2 1,-3 0,-2 1,-3 1,-4l0 0c0,-1 0,-2 0,-3 0,-1 0,-2 0,-3 0,-3 0,-6 -1,-9 0,-2 -1,-4 -2,-7l0 0c-1,-2 -2,-4 -3,-5 -1,-2 -3,-3 -5,-4l0 0c-1,-2 -3,-3 -5,-4 -2,-1 -5,-1 -7,-2l0 0c-2,-1 -5,-1 -7,-1 -3,-1 -6,-1 -9,-1l-27 0zm77 41l0 42c0,3 0,5 0,7 1,3 1,5 1,7l0 0c1,2 1,4 2,6 0,2 1,4 2,6l0 0c1,1 2,3 3,5 1,1 2,3 4,4l0 0c1,1 3,2 4,3 2,1 4,2 6,3l0 0c2,1 4,1 7,1 2,1 4,1 7,1 3,0 5,0 8,-1 2,0 4,-1 6,-1 2,-1 4,-2 6,-3 2,-1 3,-2 4,-3 2,-2 3,-3 4,-5 1,-1 2,-3 3,-5l0 0c1,-2 2,-4 2,-6 1,-2 1,-4 2,-6 0,-2 0,-4 1,-6 0,-3 0,-5 0,-7l0 -42c0,-14 -3,-25 -9,-32 -6,-7 -15,-11 -27,-11 -12,0 -21,4 -27,11 -6,7 -9,18 -9,32zm48 -6l0 54c0,6 -1,11 -3,14 -2,3 -5,5 -9,5 -4,0 -7,-2 -9,-5 -2,-3 -3,-8 -3,-14l0 -54c0,-1 0,-2 1,-3 0,-1 0,-2 0,-3l0 0c0,-1 0,-2 0,-3 1,-1 1,-2 1,-3l0 0c1,-1 1,-2 2,-3 1,-1 1,-1 2,-2 1,0 2,-1 3,-1 1,0 2,-1 3,-1 4,0 7,2 9,5 2,3 3,8 3,14zm39 -35l0 124 21 0 0 -69 0 -2 1 2 27 69 17 0 0 -124 -20 0 0 65 0 2 -1 -2 -27 -65 -18 0zm83 0l0 124 24 0 0 -124 -24 0zm53 19l0 105 24 0 0 -105 0 -1 0 0 18 0 0 -18 -60 0 0 18 17 0 1 0 0 1z"/>
  </g>
 </g>
</svg>
