<?xml version="1.0" encoding="UTF-8"?>
<!DOCTYPE svg PUBLIC "-//W3C//DTD SVG 1.1//EN" "http://www.w3.org/Graphics/SVG/1.1/DTD/svg11.dtd">
<!-- Creator: CorelDRAW X7 -->
<svg xmlns="http://www.w3.org/2000/svg" xml:space="preserve" width="10.16mm" height="10.16mm" version="1.1" style="shape-rendering:geometricPrecision; text-rendering:geometricPrecision; image-rendering:optimizeQuality; fill-rule:evenodd; clip-rule:evenodd"
viewBox="0 0 1016 1016"
 xmlns:xlink="http://www.w3.org/1999/xlink">
 <defs>
  <style type="text/css">
   <![CDATA[
    .fil1 {fill:#256D9B}
    .fil2 {fill:#EBA12C}
    .fil0 {fill:whitesmoke}
   ]]>
  </style>
 </defs>
 <g id="Capa_x0020_1">
  <metadata id="CorelCorpID_0Corel-Layer"/>
  <g id="_800197992096">
   <circle class="fil0" cx="508" cy="508" r="508"/>
   <g>
    <path class="fil1" d="M411 341l1 0c2,-3 4,-6 3,-9 -7,-44 -2,-62 -1,-67 13,-38 53,-57 61,-60 1,0 4,-1 8,-2l0 0 7 0 0 0 1 0c2,0 3,0 4,-1l2 0c1,0 17,2 40,9l16 5c29,9 42,25 45,28 23,27 17,67 11,89 0,2 0,5 1,7l2 1c2,3 3,13 -2,31 -1,5 -3,10 -6,13 -2,1 -2,3 -3,5 -7,46 -49,98 -93,98 -37,0 -80,-48 -87,-98 -1,-2 -1,-4 -3,-5 -3,-3 -5,-8 -6,-15 -4,-13 -4,-24 -1,-29z"/>
    <path class="fil2" d="M667 366l0 -1c2,-1 3,-4 3,-6 -5,-33 -2,-46 -1,-50 10,-28 39,-42 45,-44 1,0 3,-1 6,-1l0 -1 5 0 0 0 1 0c1,0 2,0 3,0l1 0c1,0 13,1 30,6l12 4c21,7 31,19 33,21 17,20 13,49 8,65 0,2 0,4 1,6l1 1c2,2 3,8 -1,22 -1,4 -2,8 -5,10 -1,1 -1,2 -1,4 -6,34 -37,72 -69,72 -28,0 -59,-35 -65,-72 0,-2 -1,-3 -2,-4 -2,-3 -4,-6 -4,-11 -3,-10 -3,-18 -1,-21z"/>
    <path class="fil2" d="M683 517l-3 -1c-4,-3 -10,-5 -15,-7 8,-3 14,-7 18,-10 1,0 2,-1 2,-2 2,-2 4,-4 7,-6l1 -2 1 2c15,13 30,20 45,20 15,0 30,-6 44,-19l1 0 3 1c3,2 8,6 10,7l2 1 0 0 2 1c2,2 5,4 9,5 3,2 6,3 9,4 0,0 14,4 30,12l3 1c15,5 21,13 22,14 24,35 27,111 28,120 0,12 -4,15 -4,15 -45,20 -109,28 -136,30 -3,-35 -11,-117 -40,-160l-1 -2c-6,-7 -19,-17 -38,-24z"/>
    <path class="fil1" d="M445 501l2 -2 2 2c19,18 40,28 59,28 20,0 41,-9 60,-25l2 -2 4 2c3,3 10,8 13,10l4 1 -1 1 2 1c3,2 7,4 12,6 4,2 8,4 12,5 1,0 20,6 41,16l4 2c21,7 29,18 30,19 31,47 37,150 37,162 0,16 -4,20 -6,21 -71,32 -179,40 -200,41l0 0 -1 0c-1,0 -1,0 -2,0l-1 0c-6,0 -10,0 -15,0l-3 0c-13,0 -129,-8 -204,-41 -1,-1 -6,-6 -6,-20 0,-2 4,-113 37,-163 2,-2 11,-12 29,-19 16,-5 56,-18 77,-34 1,0 2,-1 3,-2 2,-2 5,-5 9,-9z"/>
    <path class="fil2" d="M351 366l-1 -1c-2,-1 -3,-4 -3,-6 6,-33 2,-46 1,-50 -9,-28 -39,-42 -45,-44 -1,0 -3,-1 -5,-2l-1 0 -5 0 0 0 -1 0c-1,0 -2,0 -3,0l-1 0c-1,0 -13,1 -29,6l-12 4c-22,7 -32,19 -34,21 -17,20 -12,49 -8,65 0,2 0,4 -1,6l-1 1c-1,2 -2,8 1,22 1,4 3,8 5,10 1,1 1,2 2,4 6,34 36,72 69,72 27,0 59,-35 64,-72 0,-2 1,-3 2,-4 2,-3 4,-6 5,-11 2,-10 3,-18 1,-21z"/>
    <path class="fil2" d="M334 516l3 0c5,-3 10,-5 15,-7 -7,-3 -13,-7 -18,-10 -1,-1 -1,-1 -2,-2 -2,-2 -4,-4 -6,-7l-2 -1 -1 2c-14,13 -30,20 -44,20 -15,0 -31,-6 -45,-19l-1 0 -3 1c-3,2 -7,6 -10,7l-2 1 0 0 -1 1c-3,2 -6,3 -9,5 -3,2 -6,3 -9,4 -1,0 -15,4 -31,12l-3 1c-15,5 -21,13 -22,14 -23,35 -27,111 -27,120 0,12 3,15 4,15 44,20 109,28 136,30 2,-35 11,-117 39,-160l2 -2c6,-7 18,-17 37,-25z"/>
   </g>
  </g>
 </g>
</svg>
